<svg width="437px" height="350px" viewBox="0 0 237 180" version="1.1" xmlns="http://www.w3.org/2000/svg" xmlns:xlink="http://www.w3.org/1999/xlink">
    <g id="Welcome"  stroke-width="1" fill="none" fill-rule="evenodd" stroke-linecap="round" stroke-linejoin="round">
        <g id="Desktop-HD-Copy" transform="translate(-589.000000, -2185.000000)" stroke-width="4">
            <g id="Page-1" transform="translate(591.000000, 2187.000000)">
                <g class="stems">
                  <path class="main-stem" d="M133.4414,160.118 L133.4414,31.451" id="Stroke-7"></path>
                  <path class="outer-stems" style="-webkit-transition-delay: 2s;
  transition-delay: 2s;" d="M133.4416,146.522 L72.3706,85.451" id="Stroke-15"></path>
                  <path class="outer-stems" d="M133.8455,146.522 194.9165,85.451" id="Stroke-13"></path>
              </g>
                <g class="leaves">
                  <path d="M133.4414,98.0008 C133.4414,98.0008 185.4414,78.0008 133.4414,0.0008 C81.4414,78.0008 133.4414,98.0008 133.4414,98.0008" id="Stroke-1"></path>
                  <path d="M159.3208,121.0467 C159.3208,121.0467 200.5998,139.3927 215.5058,64.8617 C140.9748,79.7687 159.3208,121.0467 159.3208,121.0467" id="Stroke-3"></path>
                  <path d="M107.9663,121.0467 C107.9663,121.0467 66.6873,139.3927 51.7813,64.8617 C126.3123,79.7687 107.9663,121.0467 107.9663,121.0467" id="Stroke-5"></path>
                  <g class="leaves-detail">
                    <path d="M90.75,103.8309 L90.75,90.9489" id="Stroke-9"></path>
                    <path d="M175.25,103.8309 L175.25,90.9489" id="Stroke-11"></path>
                    <path d="M90.3126,104.8309 L77.4316,104.8309" id="Stroke-23"></path>
                    <path d="M133.4415,69.9157 L147.0195,56.3377" id="Stroke-25"></path>
                    <path d="M133.4412,51.2794 L141.5762,43.1444" id="Stroke-27"></path>
                    <path d="M133.4413,69.9157 L119.8633,56.3377" id="Stroke-17"></path>
                    <path d="M133.4416,51.2794 L125.3066,43.1444" id="Stroke-19"></path>
                    <path d="M175.25,104.8309 L188.131,104.8309" id="Stroke-21"></path>
                  </g>
                </g>
                <g class="hand">
                  <path d="M64.0483,188.6473 C70.1213,172.4103 98.5983,160.1183 132.8343,160.1183 C167.8373,160.1183 196.8373,172.9633 202.0113,189.7403" id="Stroke-35"></path>
                </g>
            </g>
        </g>
    </g>
</svg>