<svg viewBox="0 0 550 400" preserveAspectRatio="xMidYMax meet">
<g id="stems" fill="none" stroke="green"><path d="M353,400C352.9988333333333,398.3333333333333,353.00350000000003,392.5,352.993,390C352.9825,387.5,352.97083333333336,386.6666666666667,352.937,385C352.9031666666667,383.3333333333333,352.8331666666667,381.6666666666667,352.79,380C352.74683333333337,378.3333333333333,352.67916666666673,376.6666666666667,352.678,375C352.6768333333334,373.3333333333333,352.69550000000004,371.6666666666667,352.783,370C352.87050000000005,368.3333333333333,353.10850000000005,366.6666666666667,353.20300000000003,365C353.29750000000007,363.3333333333333,353.3721666666667,361.6666666666667,353.35,360C353.32783333333344,358.3333333333333,353.02216666666664,356.6666666666667,353.07000000000005,355C353.1178333333334,353.3333333333333,353.4375,351.6666666666667,353.63700000000006,350C353.83650000000006,348.3333333333333,354.1748333333334,346.6666666666667,354.26700000000005,345C354.3591666666667,343.3333333333333,354.16083333333336,341.6666666666667,354.19000000000005,340C354.21916666666675,338.3333333333333,354.3545000000001,336.6666666666667,354.44200000000006,335C354.5295000000001,333.3333333333333,354.6531666666667,331.6666666666667,354.7150000000001,330C354.7768333333334,328.3333333333333,354.9541666666668,326.6666666666667,354.8130000000001,325C354.6718333333334,323.3333333333333,353.8388333333334,321.6666666666667,353.8680000000001,320C353.8971666666668,318.3333333333333,354.86083333333346,316.6666666666667,354.9880000000001,315C355.11516666666677,313.3333333333333,354.73250000000013,311.6666666666667,354.6310000000001,310C354.5295000000001,308.3333333333333,354.3988333333334,306.6666666666667,354.3790000000001,305C354.3591666666667,303.3333333333333,354.4198333333333,301.6666666666667,354.51200000000006,300C354.6041666666667,298.3333333333333,354.88650000000007,296.6666666666667,354.9320000000001,295C354.97750000000013,293.3333333333333,354.65550000000013,291.6666666666667,354.7850000000001,290C354.9145000000001,288.3333333333333,355.6891666666668,286.6666666666667,355.70900000000006,285C355.7288333333334,283.3333333333333,354.8141666666668,281.6666666666667,354.90400000000005,280C354.99383333333344,278.3333333333333,356.02400000000006,276.6666666666667,356.24800000000005,275C356.47200000000004,273.3333333333333,356.5513333333334,271.6666666666667,356.24800000000005,270C355.9446666666667,268.3333333333333,354.7943333333333,266.6666666666667,354.42800000000005,265C354.0616666666667,263.3333333333333,354.17833333333334,261.6666666666667,354.05000000000007,260C353.9216666666667,258.3333333333333,353.35116666666676,256.6666666666667,353.6580000000001,255C353.9648333333334,253.33333333333334,355.7288333333334,251.66666666666666,355.8910000000001,250C356.05316666666675,248.33333333333334,354.84100000000007,246.66666666666666,354.6310000000001,245C354.4210000000001,243.33333333333334,354.2950000000001,241.66666666666666,354.6310000000001,240C354.9670000000001,238.33333333333334,355.9645000000001,236.66666666666666,356.6470000000001,235C357.3295000000001,233.33333333333334,358.73650000000004,231.66666666666666,358.7260000000001,230C358.7155000000001,228.33333333333334,357.3493333333335,226.66666666666666,356.5840000000001,225C355.8186666666668,223.33333333333334,354.08033333333356,221.66666666666666,354.1340000000001,220C354.18766666666687,218.33333333333334,356.70300000000003,216.66666666666666,356.9060000000001,215C357.10900000000015,213.33333333333334,355.9656666666668,211.66666666666666,355.35200000000015,210C354.7383333333335,208.33333333333334,353.53316666666683,206.66666666666666,353.22400000000016,205C352.9148333333335,203.33333333333334,353.59150000000017,201.66666666666666,353.4970000000002,200C353.40250000000015,198.33333333333334,352.6535000000003,196.66666666666666,352.6570000000002,195C352.6605000000002,193.33333333333334,352.98250000000013,191.66666666666666,353.5180000000002,190C354.0535000000002,188.33333333333334,355.57833333333355,186.66666666666666,355.8700000000002,185C356.16166666666686,183.33333333333334,354.95766666666685,181.66666666666666,355.2680000000002,180C355.57833333333355,178.33333333333334,357.58383333333353,176.66666666666666,357.7320000000002,175C357.88016666666687,173.33333333333334,356.41950000000026,171.66666666666666,356.1570000000002,170C355.8945000000003,168.33333333333334,355.66350000000017,166.66666666666666,356.1570000000002,165C356.65050000000025,163.33333333333334,358.9605000000002,161.66666666666666,359.1180000000002,160C359.27550000000025,158.33333333333334,357.43800000000016,155.83333333333334,357.1020000000002,155" id="grow1" style="opacity: 1; stroke-dashoffset: 1e-05; stroke-dasharray: none;"></path><path d="M256,400C256.0081666666667,398.3333333333333,256.03849999999994,392.5,256.049,390C256.0595,387.5,256.07466666666664,386.6666666666667,256.063,385C256.05133333333333,383.3333333333333,256.0163333333333,381.6666666666667,255.97899999999998,380C255.9416666666666,378.3333333333333,255.804,376.6666666666667,255.839,375C255.87400000000002,373.3333333333333,256.08866666666665,371.6666666666667,256.189,370C256.28933333333333,368.3333333333333,256.4806666666667,366.6666666666667,256.44100000000003,365C256.40133333333335,363.3333333333333,256.03266666666667,361.6666666666667,255.95100000000002,360C255.86933333333334,358.3333333333333,256.05600000000004,356.6666666666667,255.95100000000002,355C255.846,353.3333333333333,255.32100000000003,351.6666666666667,255.32100000000003,350C255.32100000000003,348.3333333333333,255.78183333333334,346.6666666666667,255.95100000000002,345C256.1201666666667,343.3333333333333,256.21583333333336,341.6666666666667,256.336,340C256.45616666666666,338.3333333333333,256.63116666666673,336.6666666666667,256.672,335C256.7128333333333,333.3333333333333,256.7595,331.6666666666667,256.581,330C256.40250000000003,328.3333333333333,255.76433333333338,326.6666666666667,255.60100000000003,325C255.4376666666667,323.3333333333333,255.76900000000003,321.6666666666667,255.60100000000003,320C255.43300000000002,318.3333333333333,254.7015,316.6666666666667,254.59300000000002,315C254.4845,313.3333333333333,254.86950000000002,311.6666666666667,254.95000000000002,310C255.0305,308.3333333333333,255.12150000000005,306.6666666666667,255.07600000000002,305C255.0305,303.3333333333333,254.60350000000003,301.6666666666667,254.67700000000002,300C254.75050000000002,298.3333333333333,255.37699999999998,296.6666666666667,255.51700000000002,295C255.65700000000004,293.3333333333333,255.33733333333336,291.6666666666667,255.51700000000002,290C255.6966666666667,288.3333333333333,256.6568333333334,286.6666666666667,256.595,285C256.53316666666666,283.3333333333333,255.44350000000006,281.6666666666667,255.14600000000002,280C254.84850000000003,278.3333333333333,255.09933333333333,276.6666666666667,254.81,275C254.5206666666667,273.3333333333333,253.73433333333332,271.6666666666667,253.41,270C253.0856666666667,268.3333333333333,253.207,266.6666666666667,252.864,265C252.521,263.3333333333333,251.7346666666667,261.6666666666667,251.352,260C250.96933333333334,258.3333333333333,250.42800000000003,256.6666666666667,250.568,255C250.708,253.33333333333334,251.78133333333335,251.66666666666666,252.192,250C252.60266666666666,248.33333333333334,252.96433333333334,246.66666666666666,253.032,245C253.09966666666665,243.33333333333334,252.67033333333336,241.66666666666666,252.598,240C252.5256666666667,238.33333333333334,252.40550000000005,236.66666666666666,252.598,235C252.79050000000004,233.33333333333334,253.6795,231.66666666666666,253.75300000000001,230C253.8265,228.33333333333334,253.56633333333335,226.66666666666666,253.03900000000002,225C252.51166666666668,223.33333333333334,251.12333333333333,221.66666666666666,250.58900000000003,220C250.0546666666667,218.33333333333334,249.74316666666667,216.66666666666666,249.83300000000003,215C249.92283333333333,213.33333333333334,251.08950000000002,211.66666666666666,251.12800000000001,210C251.1665,208.33333333333334,250.51433333333333,206.66666666666666,250.06400000000002,205C249.61366666666666,203.33333333333334,248.419,201.66666666666666,248.42600000000002,200C248.433,198.33333333333334,249.3955,196.66666666666666,250.10600000000002,195C250.81650000000005,193.33333333333334,252.4055,191.66666666666666,252.68900000000002,190C252.9725,188.33333333333334,251.85366666666667,186.66666666666666,251.80700000000002,185C251.76033333333336,183.33333333333334,252.82200000000003,181.66666666666666,252.40900000000002,180C251.996,178.33333333333334,250.15733333333336,176.66666666666666,249.329,175C248.5006666666667,173.33333333333334,248.1833333333333,171.66666666666666,247.43900000000002,170C246.69466666666668,168.33333333333334,244.96333333333337,166.66666666666666,244.86300000000003,165C244.76266666666666,163.33333333333334,245.948,161.66666666666666,246.83700000000002,160C247.72600000000003,158.33333333333334,249.98000000000002,156.66666666666666,250.19700000000003,155C250.41400000000007,153.33333333333334,248.19033333333337,151.66666666666666,248.13900000000004,150C248.0876666666667,148.33333333333334,249.4188333333334,146.66666666666666,249.88900000000004,145C250.3591666666667,143.33333333333334,250.35683333333338,141.66666666666666,250.96000000000004,140C251.5631666666667,138.33333333333334,252.83600000000004,136.66666666666666,253.50800000000004,135C254.18000000000004,133.33333333333334,254.1146666666667,131.66666666666666,254.99200000000005,130C255.8693333333334,128.33333333333334,257.9495,126.66666666666667,258.77200000000005,125C259.5945000000001,123.33333333333333,259.7345,120.83333333333333,259.927,120" id="grow2" style="opacity: 1; stroke-dashoffset: 1e-05; stroke-dasharray: none;"></path><path d="M427,400C426.98949999999996,398.3333333333333,426.9358333333334,392.5,426.937,390C426.93816666666675,387.5,427.0233333333333,386.6666666666667,427.007,385C426.99066666666664,383.3333333333333,426.88100000000003,381.6666666666667,426.839,380C426.797,378.3333333333333,426.7223333333333,376.6666666666667,426.755,375C426.7876666666666,373.3333333333333,426.9813333333334,371.6666666666667,427.03499999999997,370C427.0886666666666,368.3333333333333,427.0209999999999,366.6666666666667,427.07699999999994,365C427.133,363.3333333333333,427.34066666666655,361.6666666666667,427.3709999999999,360C427.4013333333333,358.3333333333333,427.17266666666654,356.6666666666667,427.2589999999999,355C427.3453333333332,353.3333333333333,427.8889999999999,351.6666666666667,427.8889999999999,350C427.8889999999999,348.3333333333333,427.4281666666666,346.6666666666667,427.2589999999999,345C427.08983333333316,343.3333333333333,427.0081666666667,341.6666666666667,426.8739999999999,340C426.73983333333325,338.3333333333333,426.6301666666665,336.6666666666667,426.4539999999999,335C426.27783333333326,333.3333333333333,426.0211666666665,331.6666666666667,425.8169999999999,330C425.6128333333332,328.3333333333333,425.2394999999999,326.6666666666667,425.22899999999987,325C425.2184999999999,323.3333333333333,425.74116666666646,321.6666666666667,425.75399999999985,320C425.7668333333332,318.3333333333333,425.2219999999999,316.6666666666667,425.30599999999987,315C425.3899999999999,313.3333333333333,426.3093333333332,311.6666666666667,426.25799999999987,310C426.20666666666654,308.3333333333333,425.3409999999999,306.6666666666667,424.9979999999999,305C424.6549999999999,303.3333333333333,424.40299999999996,301.6666666666667,424.1999999999999,300C423.99699999999984,298.3333333333333,423.8744999999999,296.6666666666667,423.77999999999986,295C423.6854999999999,293.3333333333333,423.4521666666665,291.6666666666667,423.63299999999987,290C423.8138333333332,288.3333333333333,424.68649999999997,286.6666666666667,424.8649999999999,285C425.04349999999994,283.3333333333333,424.75883333333314,281.6666666666667,424.7039999999999,280C424.6491666666666,278.3333333333333,424.59316666666655,276.6666666666667,424.5359999999999,275C424.4788333333333,273.3333333333333,424.26883333333325,271.6666666666667,424.3609999999999,270C424.4531666666665,268.3333333333333,424.6211666666665,266.6666666666667,425.0889999999999,265C425.55683333333326,263.3333333333333,426.6581666666666,261.6666666666667,427.1679999999999,260C427.6778333333332,258.3333333333333,428.22149999999993,256.6666666666667,428.1479999999999,255C428.0744999999999,253.33333333333334,427.1738333333332,251.66666666666666,426.7269999999999,250C426.2801666666667,248.33333333333334,425.6408333333333,246.66666666666666,425.4669999999999,245C425.2931666666666,243.33333333333334,425.3491666666666,241.66666666666666,425.6839999999999,240C426.01883333333325,238.33333333333334,427.40833333333325,236.66666666666666,427.4759999999999,235C427.5436666666665,233.33333333333334,426.5193333333332,231.66666666666666,426.08999999999986,230C425.6606666666665,228.33333333333334,425.2616666666665,226.66666666666666,424.89999999999986,225C424.53833333333324,223.33333333333334,424.16733333333326,221.66666666666666,423.91999999999985,220C423.67266666666643,218.33333333333334,423.58633333333324,216.66666666666666,423.4159999999998,215C423.24566666666647,213.33333333333334,423.0286666666664,211.66666666666666,422.89799999999985,210C422.7673333333332,208.33333333333334,422.3578333333332,206.66666666666666,422.63199999999983,205C422.9061666666665,203.33333333333334,423.8044999999998,201.66666666666666,424.54299999999984,200C425.2814999999998,198.33333333333334,426.9299999999998,196.66666666666666,427.0629999999998,195C427.19599999999986,193.33333333333334,426.11799999999977,191.66666666666666,425.34099999999984,190C424.56399999999985,188.33333333333334,422.4394999999999,186.66666666666666,422.40099999999984,185C422.3624999999998,183.33333333333334,424.65849999999983,180.83333333333334,425.10999999999984,180" id="grow3" style="opacity: 1; stroke-dashoffset: 1e-05; stroke-dasharray: none;"></path><path d="M171,400C170.99066666666667,398.3333333333333,170.97666666666666,392.5,170.944,390C170.91133333333335,387.5,170.81683333333334,386.6666666666667,170.804,385C170.79116666666667,383.3333333333333,170.8285,381.6666666666667,170.867,380C170.9055,378.3333333333333,171.042,376.6666666666667,171.035,375C171.02800000000002,373.3333333333333,170.88099999999997,371.6666666666667,170.825,370C170.76899999999998,368.3333333333333,170.65466666666666,366.6666666666667,170.69899999999998,365C170.7433333333333,363.3333333333333,171.05366666666666,361.6666666666667,171.09099999999998,360C171.1283333333333,358.3333333333333,170.87749999999994,356.6666666666667,170.92299999999997,355C170.96849999999995,353.3333333333333,171.36049999999997,351.6666666666667,171.36399999999998,350C171.36749999999995,348.3333333333333,170.91133333333335,346.6666666666667,170.944,345C170.97666666666666,343.3333333333333,171.59733333333335,341.6666666666667,171.56,340C171.5226666666667,338.3333333333333,170.7993333333333,336.6666666666667,170.72,335C170.64066666666668,333.3333333333333,170.8763333333333,331.6666666666667,171.084,330C171.29166666666666,328.3333333333333,171.71400000000003,326.6666666666667,171.966,325C172.218,323.3333333333333,172.547,321.6666666666667,172.596,320C172.64499999999998,318.3333333333333,172.3953333333333,316.6666666666667,172.26,315C172.12466666666668,313.3333333333333,171.8213333333333,311.6666666666667,171.784,310C171.74666666666667,308.3333333333333,172.17133333333334,306.6666666666667,172.036,305C171.90066666666667,303.3333333333333,171.05600000000004,301.6666666666667,170.972,300C170.888,298.3333333333333,171.19366666666667,296.6666666666667,171.532,295C171.87033333333332,293.3333333333333,172.96233333333336,291.6666666666667,173.002,290C173.0416666666667,288.3333333333333,171.89483333333337,286.6666666666667,171.77,285C171.64516666666668,283.3333333333333,172.08849999999998,281.6666666666667,172.25300000000001,280C172.41750000000002,278.3333333333333,172.87716666666665,276.6666666666667,172.757,275C172.63683333333333,273.3333333333333,171.46316666666667,271.6666666666667,171.532,270C171.60083333333333,268.3333333333333,173.05449999999996,266.6666666666667,173.17000000000002,265C173.28549999999998,263.3333333333333,172.6111666666667,261.6666666666667,172.22500000000002,260C171.83883333333335,258.3333333333333,171.01399999999998,256.6666666666667,170.853,255C170.692,253.33333333333334,171.08633333333333,251.66666666666666,171.25900000000001,250C171.4316666666667,248.33333333333334,171.53083333333333,246.66666666666666,171.889,245C172.2471666666667,243.33333333333334,173.15483333333336,241.66666666666666,173.40800000000002,240C173.66116666666667,238.33333333333334,173.29250000000002,236.66666666666666,173.40800000000002,235C173.5235,233.33333333333334,173.58883333333335,231.66666666666666,174.10100000000003,230C174.61316666666673,228.33333333333334,176.41100000000006,226.66666666666666,176.48100000000002,225C176.55100000000004,223.33333333333334,174.80566666666672,221.66666666666666,174.52100000000002,220C174.23633333333336,218.33333333333334,174.42883333333336,216.66666666666666,174.77300000000002,215C175.1171666666667,213.33333333333334,175.9291666666667,211.66666666666666,176.586,210C177.24283333333335,208.33333333333334,178.35933333333335,205.83333333333334,178.714,205" id="grow4" style="opacity: 1; stroke-dashoffset: 1e-05; stroke-dasharray: none;"></path><path d="M290,400C289.98833333333334,398.3333333333333,289.9626666666666,392.5,289.93,390C289.89733333333334,387.5,289.8285,386.6666666666667,289.80400000000003,385C289.77950000000004,383.3333333333333,289.7631666666667,381.6666666666667,289.783,380C289.80283333333335,378.3333333333333,289.8763333333333,376.6666666666667,289.923,375C289.9696666666667,373.3333333333333,289.97666666666663,371.6666666666667,290.063,370C290.14933333333335,368.3333333333333,290.28816666666665,366.6666666666667,290.441,365C290.5938333333333,363.3333333333333,290.8155,361.6666666666667,290.97999999999996,360C291.14449999999994,358.3333333333333,291.3218333333333,356.6666666666667,291.42799999999994,355C291.53416666666664,353.3333333333333,291.58549999999997,351.6666666666667,291.61699999999996,350C291.64849999999996,348.3333333333333,291.7453333333333,346.6666666666667,291.61699999999996,345C291.48866666666663,343.3333333333333,291.08733333333333,341.6666666666667,290.847,340C290.6066666666666,338.3333333333333,290.1353333333333,336.6666666666667,290.17499999999995,335C290.21466666666663,333.3333333333333,290.9823333333333,331.6666666666667,291.085,330C291.18766666666664,328.3333333333333,290.68250000000006,326.6666666666667,290.791,325C290.8995,323.3333333333333,291.48516666666666,321.6666666666667,291.736,320C291.9868333333333,318.3333333333333,292.16299999999995,316.6666666666667,292.296,315C292.42900000000003,313.3333333333333,292.55733333333336,311.6666666666667,292.534,310C292.5106666666666,308.3333333333333,292.1746666666667,306.6666666666667,292.156,305C292.13733333333334,303.3333333333333,292.5176666666667,301.6666666666667,292.422,300C292.32633333333337,298.3333333333333,291.6485,296.6666666666667,291.58200000000005,295C291.51550000000003,293.3333333333333,291.76983333333334,291.6666666666667,292.023,290C292.2761666666667,288.3333333333333,293.0555,286.6666666666667,293.101,285C293.1465,283.3333333333333,292.4021666666667,281.6666666666667,292.296,280C292.1898333333333,278.3333333333333,292.2901666666667,276.6666666666667,292.464,275C292.63783333333333,273.3333333333333,293.3145,271.6666666666667,293.339,270C293.3635,268.3333333333333,292.48033333333336,266.6666666666667,292.611,265C292.7416666666667,263.3333333333333,294.0016666666666,261.6666666666667,294.123,260C294.2443333333333,258.3333333333333,293.1651666666667,256.6666666666667,293.339,255C293.51283333333333,253.33333333333334,294.7565,251.66666666666666,295.166,250C295.57550000000003,248.33333333333334,295.6186666666667,246.66666666666666,295.796,245C295.9733333333333,243.33333333333334,296.419,241.66666666666666,296.23,240C296.041,238.33333333333334,295.00033333333334,236.66666666666666,294.66200000000003,235C294.3236666666667,233.33333333333334,294.039,231.66666666666666,294.20000000000005,230C294.36100000000005,228.33333333333334,295.5941666666667,226.66666666666666,295.62800000000004,225C295.6618333333334,223.33333333333334,294.6491666666667,221.66666666666666,294.403,220C294.15683333333334,218.33333333333334,294.0203333333334,216.66666666666666,294.151,215C294.2816666666667,213.33333333333334,294.571,211.66666666666666,295.187,210C295.803,208.33333333333334,297.4946666666667,206.66666666666666,297.84700000000004,205C298.1993333333334,203.33333333333334,297.5786666666667,201.66666666666666,297.30100000000004,200C297.02333333333337,198.33333333333334,295.88933333333335,196.66666666666666,296.18100000000004,195C296.4726666666667,193.33333333333334,298.9646666666667,191.66666666666666,299.05100000000004,190C299.1373333333334,188.33333333333334,297.59266666666673,186.66666666666666,296.69900000000007,185C295.8053333333334,183.33333333333334,294.3960000000001,181.66666666666666,293.6890000000001,180C292.9820000000001,178.33333333333334,292.3998333333334,176.66666666666666,292.45700000000005,175C292.51416666666665,173.33333333333334,294.03783333333337,171.66666666666666,294.03200000000004,170C294.0261666666667,168.33333333333334,293.0741666666667,166.66666666666666,292.422,165C291.76983333333334,163.33333333333334,290.3348333333334,161.66666666666666,290.119,160C289.90316666666666,158.33333333333334,290.5588333333334,156.66666666666666,291.127,155C291.6951666666667,153.33333333333334,292.60283333333336,151.66666666666666,293.528,150C294.4531666666667,148.33333333333334,296.68850000000003,146.66666666666666,296.678,145C296.66749999999996,143.33333333333334,294.18249999999995,141.66666666666666,293.465,140C292.7475,138.33333333333334,291.9985,136.66666666666666,292.373,135C292.7475,133.33333333333334,294.7145,131.66666666666666,295.712,130C296.7095,128.33333333333334,297.91700000000003,125.83333333333333,298.358,125" id="grow5" style="opacity: 1; stroke-dashoffset: 1e-05; stroke-dasharray: none;"></path><path d="M383,400C382.98949999999996,398.3333333333333,382.9241666666667,392.5,382.937,390C382.9498333333334,387.5,383.04316666666665,386.6666666666667,383.077,385C383.11083333333335,383.3333333333333,383.0875000000001,381.6666666666667,383.14,380C383.19250000000005,378.3333333333333,383.2916666666666,376.6666666666667,383.392,375C383.49233333333336,373.3333333333333,383.7326666666667,371.6666666666667,383.742,370C383.7513333333334,368.3333333333333,383.55416666666673,366.6666666666667,383.44800000000004,365C383.3418333333334,363.3333333333333,383.2088333333333,361.6666666666667,383.105,360C383.0011666666667,358.3333333333333,382.9031666666667,356.6666666666667,382.82500000000005,355C382.74683333333337,353.3333333333333,382.7025000000001,351.6666666666667,382.636,350C382.56950000000006,348.3333333333333,382.5123333333334,346.6666666666667,382.42600000000004,345C382.33966666666674,343.3333333333333,382.22533333333337,341.6666666666667,382.11800000000005,340C382.0106666666668,338.3333333333333,381.7925,336.6666666666667,381.78200000000004,335C381.7715,333.3333333333333,381.8625000000001,331.6666666666667,382.05500000000006,330C382.2475,328.3333333333333,382.7550000000001,326.6666666666667,382.93700000000007,325C383.1190000000001,323.3333333333333,382.944,321.6666666666667,383.14700000000005,320C383.3500000000001,318.3333333333333,384.18533333333335,316.6666666666667,384.15500000000003,315C384.12466666666677,313.3333333333333,383.1423333333334,311.6666666666667,382.96500000000003,310C382.78766666666667,308.3333333333333,383.13650000000007,306.6666666666667,383.091,305C383.0455,303.3333333333333,382.64183333333335,301.6666666666667,382.692,300C382.74216666666666,298.3333333333333,383.0793333333333,296.6666666666667,383.392,295C383.7046666666667,293.3333333333333,384.4746666666667,291.6666666666667,384.568,290C384.6613333333333,288.3333333333333,383.75949999999995,286.6666666666667,383.952,285C384.14450000000005,283.3333333333333,385.31583333333333,281.6666666666667,385.723,280C386.13016666666675,278.3333333333333,386.0496666666667,276.6666666666667,386.39500000000004,275C386.7403333333334,273.3333333333333,387.6526666666667,271.6666666666667,387.795,270C387.9373333333333,268.3333333333333,387.151,266.6666666666667,387.249,265C387.34700000000004,263.3333333333333,387.9653333333334,261.6666666666667,388.38300000000004,260C388.8006666666667,258.3333333333333,389.6278333333334,256.6666666666667,389.75500000000005,255C389.8821666666667,253.33333333333334,388.8625,251.66666666666666,389.1460000000001,250C389.4295,248.33333333333334,391.28800000000007,246.66666666666666,391.4560000000001,245C391.624,243.33333333333334,390.0350000000001,241.66666666666666,390.15400000000005,240C390.2730000000001,238.33333333333334,391.75700000000006,236.66666666666666,392.1700000000001,235C392.5830000000001,233.33333333333334,392.7136666666667,231.66666666666666,392.63200000000006,230C392.5503333333334,228.33333333333334,392.12450000000007,226.66666666666666,391.68000000000006,225C391.23550000000006,223.33333333333334,390.12483333333336,221.66666666666666,389.9650000000001,220C389.80516666666676,218.33333333333334,390.5950000000001,215.83333333333334,390.72100000000006,215" id="grow6" style="opacity: 1; stroke-dashoffset: 1e-05; stroke-dasharray: none;"></path><path d="M230,400C230.0035,398.3333333333333,230.04083333333332,392.5,230.021,390C230.00116666666668,387.5,229.86933333333332,386.6666666666667,229.881,385C229.8926666666667,383.3333333333333,230.08866666666668,381.6666666666667,230.091,380C230.09333333333333,378.3333333333333,229.97433333333336,376.6666666666667,229.895,375C229.81566666666666,373.3333333333333,229.72466666666665,371.6666666666667,229.615,370C229.50533333333337,368.3333333333333,229.34083333333334,366.6666666666667,229.23700000000002,365C229.13316666666665,363.3333333333333,229.02350000000004,361.6666666666667,228.99200000000002,360C228.96050000000002,358.3333333333333,229.0281666666667,356.6666666666667,229.04800000000003,355C229.0678333333334,353.3333333333333,229.21716666666669,351.6666666666667,229.11100000000002,350C229.00483333333338,348.3333333333333,228.4506666666667,346.6666666666667,228.41100000000003,345C228.37133333333335,343.3333333333333,228.936,341.6666666666667,228.87300000000002,340C228.81000000000003,338.3333333333333,228.29433333333336,336.6666666666667,228.03300000000002,335C227.77166666666668,333.3333333333333,227.31199999999998,331.6666666666667,227.305,330C227.298,328.3333333333333,227.8591666666667,326.6666666666667,227.991,325C228.12283333333335,323.3333333333333,228.19050000000001,321.6666666666667,228.096,320C228.0015,318.3333333333333,227.55583333333334,316.6666666666667,227.424,315C227.2921666666667,313.3333333333333,227.26183333333333,311.6666666666667,227.305,310C227.34816666666666,308.3333333333333,227.62,306.6666666666667,227.683,305C227.74599999999998,303.3333333333333,227.61299999999997,301.6666666666667,227.683,300C227.75300000000001,298.3333333333333,228.2535,296.6666666666667,228.10299999999998,295C227.9525,293.3333333333333,226.82083333333333,291.6666666666667,226.77999999999997,290C226.73916666666662,288.3333333333333,227.78566666666666,286.6666666666667,227.85799999999998,285C227.93033333333332,283.3333333333333,227.54533333333333,281.6666666666667,227.21399999999997,280C226.88266666666664,278.3333333333333,225.9773333333333,276.6666666666667,225.86999999999998,275C225.76266666666663,273.3333333333333,226.48366666666664,271.6666666666667,226.56999999999996,270C226.65633333333332,268.3333333333333,226.51283333333333,266.6666666666667,226.38799999999998,265C226.26316666666665,263.3333333333333,225.7848333333333,261.6666666666667,225.82099999999997,260C225.85716666666667,258.3333333333333,226.5758333333333,256.6666666666667,226.60499999999996,255C226.6341666666666,253.33333333333334,225.95749999999995,251.66666666666666,225.99599999999995,250C226.03449999999995,248.33333333333334,226.2981666666666,246.66666666666666,226.83599999999996,245C227.3738333333333,243.33333333333334,229.16116666666665,241.66666666666666,229.22299999999996,240C229.28483333333327,238.33333333333334,227.46599999999998,236.66666666666666,227.20699999999997,235C226.94799999999995,233.33333333333334,227.31433333333325,231.66666666666666,227.66899999999995,230C228.02366666666663,228.33333333333334,229.09816666666663,226.66666666666666,229.33499999999995,225C229.5718333333333,223.33333333333334,228.7108333333333,221.66666666666666,229.08999999999995,220C229.4691666666666,218.33333333333334,231.31949999999998,216.66666666666666,231.60999999999996,215C231.90049999999997,213.33333333333334,231.2728333333333,211.66666666666666,230.83299999999997,210C230.39316666666664,208.33333333333334,229.73633333333328,206.66666666666666,228.97099999999998,205C228.20566666666664,203.33333333333334,226.46266666666665,201.66666666666666,226.24099999999999,200C226.01933333333332,198.33333333333334,227.886,196.66666666666666,227.641,195C227.396,193.33333333333334,224.95533333333333,191.66666666666666,224.771,190C224.58666666666667,188.33333333333334,225.68916666666667,186.66666666666666,226.535,185C227.38083333333336,183.33333333333334,229.39683333333335,181.66666666666666,229.846,180C230.29516666666666,178.33333333333334,229.75266666666664,176.66666666666666,229.23,175C228.7073333333333,173.33333333333334,227.45199999999997,171.66666666666666,226.70999999999998,170C225.96799999999996,168.33333333333334,225.59349999999998,166.66666666666666,224.778,165C223.96249999999998,163.33333333333334,222.47849999999997,161.66666666666666,221.81699999999998,160C221.15549999999996,158.33333333333334,221.03416666666666,156.66666666666666,220.80899999999997,155C220.58383333333327,153.33333333333334,220.23149999999998,151.66666666666666,220.46599999999998,150C220.70049999999995,148.33333333333334,221.80533333333327,146.66666666666666,222.21599999999998,145C222.62666666666667,143.33333333333334,222.14366666666663,141.66666666666666,222.92999999999998,140C223.71633333333332,138.33333333333334,226.26666666666665,135.83333333333334,226.93399999999997,135" id="grow7" style="opacity: 1; stroke-dashoffset: 1e-05; stroke-dasharray: none;"></path><path d="M385,400C385.01050000000004,398.3333333333333,385.0501666666666,392.5,385.063,390C385.0758333333333,387.5,385.0991666666667,386.6666666666667,385.077,385C385.0548333333333,383.3333333333333,384.9591666666667,381.6666666666667,384.93,380C384.9008333333333,378.3333333333333,384.8774999999999,376.6666666666667,384.902,375C384.9265,373.3333333333333,385.0758333333333,371.6666666666667,385.077,370C385.0781666666667,368.3333333333333,384.87166666666667,366.6666666666667,384.909,365C384.9463333333333,363.3333333333333,385.2356666666667,361.6666666666667,385.301,360C385.36633333333333,358.3333333333333,385.3115,356.6666666666667,385.301,355C385.2905,353.3333333333333,385.12016666666665,351.6666666666667,385.238,350C385.3558333333333,348.3333333333333,385.8924999999999,346.6666666666667,386.008,345C386.1234999999999,343.3333333333333,386.01383333333325,341.6666666666667,385.931,340C385.84816666666666,338.3333333333333,385.7326666666666,336.6666666666667,385.51099999999997,335C385.28933333333333,333.3333333333333,384.60566666666665,331.6666666666667,384.60099999999994,330C384.59633333333323,328.3333333333333,385.38849999999996,326.6666666666667,385.48299999999995,325C385.57749999999993,323.3333333333333,385.22049999999996,321.6666666666667,385.16799999999995,320C385.11549999999994,318.3333333333333,385.0688333333333,316.6666666666667,385.16799999999995,315C385.2671666666667,313.3333333333333,385.66383333333334,311.6666666666667,385.763,310C385.8621666666667,308.3333333333333,385.8295,306.6666666666667,385.763,305C385.6965,303.3333333333333,385.2904999999999,301.6666666666667,385.364,300C385.4375,298.3333333333333,385.84349999999995,296.6666666666667,386.20399999999995,295C386.56449999999995,293.3333333333333,387.3321666666665,291.6666666666667,387.52699999999993,290C387.7218333333332,288.3333333333333,387.6669999999999,286.6666666666667,387.37299999999993,285C387.0789999999999,283.3333333333333,386.14333333333326,281.6666666666667,385.7629999999999,280C385.3826666666666,278.3333333333333,385.2613333333332,276.6666666666667,385.0909999999999,275C384.9206666666666,273.3333333333333,384.9206666666665,271.6666666666667,384.7409999999999,270C384.56133333333315,268.3333333333333,384.26033333333316,266.6666666666667,384.01299999999986,265C383.7656666666665,263.3333333333333,383.3176666666666,261.6666666666667,383.2569999999999,260C383.19633333333326,258.3333333333333,383.44833333333327,256.6666666666667,383.6489999999999,255C383.84966666666656,253.33333333333334,384.1506666666666,251.66666666666666,384.4609999999999,250C384.7713333333333,248.33333333333334,385.48066666666654,246.66666666666666,385.5109999999999,245C385.5413333333333,243.33333333333334,384.63833333333326,241.66666666666666,384.6429999999999,240C384.6476666666665,238.33333333333334,385.77466666666663,236.66666666666666,385.53899999999993,235C385.3033333333332,233.33333333333334,383.17766666666665,231.66666666666666,383.2289999999999,230C383.2803333333333,228.33333333333334,385.77816666666655,226.66666666666666,385.8469999999999,225C385.91583333333324,223.33333333333334,384.2194999999999,221.66666666666666,383.64199999999994,220C383.06449999999995,218.33333333333334,382.2466666666666,216.66666666666666,382.38199999999995,215C382.5173333333332,213.33333333333334,384.50766666666664,211.66666666666666,384.45399999999995,210C384.40033333333326,208.33333333333334,382.09499999999986,206.66666666666666,382.05999999999995,205C382.0249999999999,203.33333333333334,383.46,201.66666666666666,384.24399999999997,200C385.028,198.33333333333334,386.057,196.66666666666666,386.76399999999995,195C387.471,193.33333333333334,388.003,191.66666666666666,388.48599999999993,190C388.969,188.33333333333334,389.16499999999996,186.66666666666666,389.6619999999999,185C390.15899999999993,183.33333333333334,391.1669999999999,181.66666666666666,391.4679999999999,180C391.76899999999995,178.33333333333334,391.5204999999999,176.66666666666666,391.4679999999999,175C391.4154999999999,173.33333333333334,391.2055,170.83333333333334,391.1529999999999,170" id="grow8" style="opacity: 1; stroke-dashoffset: 1e-05; stroke-dasharray: none;"></path><path d="M119,400C118.99766666666666,398.3333333333333,119.007,392.5,118.986,390C118.96500000000002,387.5,118.86116666666668,386.6666666666667,118.87400000000001,385C118.88683333333334,383.3333333333333,119.0175,381.6666666666667,119.063,380C119.1085,378.3333333333333,119.06883333333333,376.6666666666667,119.147,375C119.22516666666668,373.3333333333333,119.50283333333334,371.6666666666667,119.53200000000001,370C119.56116666666667,368.3333333333333,119.30800000000004,366.6666666666667,119.32200000000002,365C119.33600000000001,363.3333333333333,119.56700000000002,361.6666666666667,119.61600000000001,360C119.66500000000002,358.3333333333333,119.59500000000003,356.6666666666667,119.61600000000001,355C119.63700000000001,353.3333333333333,119.65100000000001,351.6666666666667,119.74200000000002,350C119.83300000000003,348.3333333333333,120.1176666666667,346.6666666666667,120.16200000000002,345C120.20633333333335,343.3333333333333,119.9636666666667,341.6666666666667,120.00800000000002,340C120.05233333333335,338.3333333333333,120.3731666666667,336.6666666666667,120.42800000000003,335C120.48283333333336,333.3333333333333,120.41750000000002,331.6666666666667,120.33700000000003,330C120.25650000000003,328.3333333333333,120.16783333333336,326.6666666666667,119.94500000000004,325C119.7221666666667,323.3333333333333,119.0081666666667,321.6666666666667,119.00000000000004,320C118.99183333333337,318.3333333333333,119.82600000000002,316.6666666666667,119.89600000000004,315C119.96600000000005,313.3333333333333,119.43633333333338,311.6666666666667,119.42000000000004,310C119.4036666666667,308.3333333333333,119.86800000000005,306.6666666666667,119.79800000000004,305C119.72800000000002,303.3333333333333,119.34300000000003,301.6666666666667,119.00000000000004,300C118.65700000000004,298.3333333333333,118.02350000000006,296.6666666666667,117.74000000000004,295C117.45650000000005,293.3333333333333,117.32116666666668,291.6666666666667,117.29900000000004,290C117.27683333333339,288.3333333333333,117.3946666666667,286.6666666666667,117.60700000000004,285C117.8193333333334,283.3333333333333,118.49600000000004,281.6666666666667,118.57300000000004,280C118.65000000000003,278.3333333333333,118.12383333333338,276.6666666666667,118.06900000000003,275C118.0141666666667,273.3333333333333,117.91150000000005,271.6666666666667,118.24400000000003,270C118.57650000000001,268.3333333333333,119.41416666666669,266.6666666666667,120.06400000000002,265C120.71383333333335,263.3333333333333,121.66583333333334,261.6666666666667,122.14300000000001,260C122.62016666666669,258.3333333333333,122.99933333333335,256.6666666666667,122.92700000000002,255C122.85466666666669,253.33333333333334,122.19200000000002,251.66666666666666,121.70900000000002,250C121.22600000000001,248.33333333333334,120.0196666666667,246.66666666666666,120.02900000000001,245C120.03833333333334,243.33333333333334,121.4756666666667,241.66666666666666,121.76500000000001,240C122.05433333333336,238.33333333333334,121.76500000000003,235.83333333333334,121.76500000000001,235" id="grow9" style="opacity: 1; stroke-dashoffset: 1e-05; stroke-dasharray: none;"></path><path d="M400,400C399.99066666666664,398.3333333333333,399.9346666666667,392.5,399.944,390C399.9533333333334,387.5,400.02333333333337,386.6666666666667,400.05600000000004,385C400.0886666666667,383.3333333333333,400.16800000000006,381.6666666666667,400.14000000000004,380C400.112,378.3333333333333,399.94750000000005,376.6666666666667,399.88800000000003,375C399.8285000000001,373.3333333333333,399.76550000000003,371.6666666666667,399.783,370C399.80050000000006,368.3333333333333,399.94983333333334,366.6666666666667,399.993,365C400.0361666666667,363.3333333333333,399.96849999999995,361.6666666666667,400.042,360C400.11550000000005,358.3333333333333,400.33716666666663,356.6666666666667,400.43399999999997,355C400.5308333333333,353.3333333333333,400.67316666666665,351.6666666666667,400.623,350C400.57283333333334,348.3333333333333,400.09916666666663,346.6666666666667,400.133,345C400.1668333333333,343.3333333333333,400.6404999999999,341.6666666666667,400.82599999999996,340C401.0114999999999,338.3333333333333,401.1456666666666,336.6666666666667,401.246,335C401.34633333333323,333.3333333333333,401.33233333333334,331.6666666666667,401.428,330C401.5236666666667,328.3333333333333,401.7196666666667,326.6666666666667,401.82,325C401.9203333333333,323.3333333333333,402.12566666666663,321.6666666666667,402.03,320C401.9343333333333,318.3333333333333,401.53533333333326,316.6666666666667,401.246,315C400.95666666666665,313.3333333333333,400.36866666666674,311.6666666666667,400.294,310C400.2193333333333,308.3333333333333,400.73616666666663,306.6666666666667,400.798,305C400.85983333333337,303.3333333333333,400.5705000000001,301.6666666666667,400.665,300C400.75950000000006,298.3333333333333,401.0278333333333,296.6666666666667,401.365,295C401.7021666666667,293.3333333333333,402.51883333333325,291.6666666666667,402.688,290C402.8571666666666,288.3333333333333,402.59233333333333,286.6666666666667,402.38,285C402.16766666666655,283.3333333333333,401.743,281.6666666666667,401.414,280C401.085,278.3333333333333,400.7490000000001,276.6666666666667,400.406,275C400.06300000000005,273.3333333333333,399.258,271.6666666666667,399.356,270C399.454,268.3333333333333,400.5319999999999,266.6666666666667,400.99399999999997,265C401.45599999999996,263.3333333333333,402.2003333333334,261.6666666666667,402.128,260C402.0556666666667,258.3333333333333,400.4491666666667,256.6666666666667,400.56,255C400.67083333333335,253.33333333333334,402.1758333333333,251.66666666666666,402.793,250C403.4101666666666,248.33333333333334,403.7648333333334,246.66666666666666,404.26300000000003,245C404.7611666666667,243.33333333333334,405.49150000000003,241.66666666666666,405.78200000000004,240C406.0725,238.33333333333334,405.9686666666667,236.66666666666666,406.00600000000003,235C406.0433333333333,233.33333333333334,406.2043333333333,231.66666666666666,406.00600000000003,230C405.80766666666665,228.33333333333334,404.85099999999994,226.66666666666666,404.81600000000003,225C404.781,223.33333333333334,405.80066666666676,221.66666666666666,405.79600000000005,220C405.7913333333334,218.33333333333334,404.69700000000006,216.66666666666666,404.78800000000007,215C404.8790000000001,213.33333333333334,406.5263333333334,211.66666666666666,406.34200000000004,210C406.15766666666667,208.33333333333334,404.30733333333336,206.66666666666666,403.682,205C403.0566666666667,203.33333333333334,403.23866666666663,201.66666666666666,402.59000000000003,200C401.9413333333334,198.33333333333334,399.9696666666667,196.66666666666666,399.79,195C399.61033333333336,193.33333333333334,401.47,191.66666666666666,401.512,190C401.55400000000003,188.33333333333334,400.78866666666664,186.66666666666666,400.042,185C399.2953333333333,183.33333333333334,397.94433333333336,181.66666666666666,397.032,180C396.11966666666666,178.33333333333334,394.66366666666664,176.66666666666666,394.568,175C394.4723333333333,173.33333333333334,396.5723333333333,171.66666666666666,396.45799999999997,170C396.3436666666666,168.33333333333334,394.421,166.66666666666666,393.88199999999995,165C393.34299999999985,163.33333333333334,393.1656666666666,161.66666666666666,393.22399999999993,160C393.28233333333327,158.33333333333334,393.54949999999985,156.66666666666666,394.2319999999999,155C394.91449999999986,153.33333333333334,396.8044999999999,150.83333333333334,397.3189999999999,150" id="grow10" style="opacity: 1; stroke-dashoffset: 1e-05; stroke-dasharray: none;"></path></g>
<g id="leaves"><path data-svg-origin="0 0" d="M0,0 Q5,-5 10,0 5,5 0,0z" style="fill: rgb(0, 149, 0); transform: matrix(-0.43837, -0.89879, 0.89879, -0.43837, 357.102, 155);"></path><path data-svg-origin="0 0" d="M0,0 Q5,-5 10,0 5,5 0,0z" style="fill: rgb(0, 121, 0); transform: matrix(-0.80448, -0.75019, 0.71609, -0.76792, 359.118, 160);"></path><path data-svg-origin="0 0" d="M0,0 Q5,-5 10,0 5,5 0,0z" style="fill: rgb(0, 149, 0); transform: matrix(0.8632, -0.83359, 0.76412, 0.79127, 356.157, 165);"></path><path data-svg-origin="0 0" d="M0,0 Q5,-5 10,0 5,5 0,0z" style="fill: rgb(0, 123, 0); transform: matrix(1.23637, -0.40172, 0.35536, 1.09371, 356.157, 170);"></path><path data-svg-origin="0 0" d="M0,0 Q5,-5 10,0 5,5 0,0z" style="fill: rgb(0, 148, 0); transform: matrix(-0.95479, -1.02389, 0.87762, -0.81839, 357.732, 175);"></path><path data-svg-origin="0 0" d="M0,0 Q5,-5 10,0 5,5 0,0z" style="fill: rgb(0, 117, 0); transform: matrix(-0.77255, -1.28575, 1.07145, -0.64379, 355.268, 180);"></path><path data-svg-origin="0 0" d="M0,0 Q5,-5 10,0 5,5 0,0z" style="fill: rgb(0, 122, 0); transform: matrix(1.29442, -0.94045, 0.76412, 1.05172, 355.87, 185);"></path><path data-svg-origin="0 0" d="M0,0 Q5,-5 10,0 5,5 0,0z" style="fill: rgb(0, 145, 0); transform: matrix(-1.45718, -0.87556, 0.6953, -1.15717, 353.518, 190);"></path><path data-svg-origin="0 0" d="M0,0 Q5,-5 10,0 5,5 0,0z" style="fill: rgb(0, 155, 0); transform: matrix(-0.61563, -1.69144, 1.31556, -0.47882, 352.657, 195);"></path><path data-svg-origin="0 0" d="M0,0 Q5,-5 10,0 5,5 0,0z" style="fill: rgb(0, 111, 0); transform: matrix(0.52371, -1.82639, 1.39382, 0.39967, 353.497, 200);"></path><path data-svg-origin="0 0" d="M0,0 Q5,-5 10,0 5,5 0,0z" style="fill: rgb(0, 147, 0); transform: matrix(-0.93894, -1.76589, 1.32442, -0.7042, 353.224, 205);"></path><path data-svg-origin="0 0" d="M0,0 Q5,-5 10,0 5,5 0,0z" style="fill: rgb(0, 136, 0); transform: matrix(-1.08157, -1.80005, 1.3286, -0.7983, 355.352, 210);"></path><path data-svg-origin="0 0" d="M0,0 Q5,-5 10,0 5,5 0,0z" style="fill: rgb(0, 135, 0); transform: matrix(1.96021, -0.99877, 0.72638, 1.42561, 356.906, 215);"></path><path data-svg-origin="0 0" d="M0,0 Q5,-5 10,0 5,5 0,0z" style="fill: rgb(0, 119, 0); transform: matrix(0.97202, -2.0845, 1.4954, 0.69732, 354.134, 220);"></path><path data-svg-origin="0 0" d="M0,0 Q5,-5 10,0 5,5 0,0z" style="fill: rgb(0, 140, 0); transform: matrix(0.62116, -2.31822, 1.64207, 0.43999, 356.584, 225);"></path><path data-svg-origin="0 0" d="M0,0 Q5,-5 10,0 5,5 0,0z" style="fill: rgb(0, 124, 0); transform: matrix(1.01684, -2.28386, 1.5987, 0.71178, 358.726, 230);"></path><path data-svg-origin="0 0" d="M0,0 Q5,-5 10,0 5,5 0,0z" style="fill: rgb(0, 122, 0); transform: matrix(-1.80611, -1.87028, 1.29481, -1.25038, 356.647, 235);"></path><path data-svg-origin="0 0" d="M0,0 Q5,-5 10,0 5,5 0,0z" style="fill: rgb(0, 128, 0); transform: matrix(1.01143, -2.50339, 1.71529, 0.69302, 354.631, 240);"></path><path data-svg-origin="0 0" d="M0,0 Q5,-5 10,0 5,5 0,0z" style="fill: rgb(0, 122, 0); transform: matrix(-1.87356, -2.0808, 1.41197, -1.27134, 354.631, 245);"></path><path data-svg-origin="0 0" d="M0,0 Q5,-5 10,0 5,5 0,0z" style="fill: rgb(0, 139, 0); transform: matrix(-2.89955, -0.05061, 0.03403, -1.9497, 355.891, 250);"></path><path data-svg-origin="0 0" d="M0,0 Q5,-5 10,0 5,5 0,0z" style="fill: rgb(0, 124, 0); transform: matrix(-1.72072, -2.45745, 1.6383, -1.14715, 353.658, 255);"></path><path data-svg-origin="0 0" d="M0,0 Q5,-5 10,0 5,5 0,0z" style="fill: rgb(0, 124, 0); transform: matrix(3.0882, -0.27018, 0.17866, 2.04219, 354.05, 260);"></path><path data-svg-origin="0 0" d="M0,0 Q5,-5 10,0 5,5 0,0z" style="fill: rgb(0, 133, 0); transform: matrix(1.35237, -2.90018, 1.90324, 0.88749, 354.428, 265);"></path><path data-svg-origin="0 0" d="M0,0 Q5,-5 10,0 5,5 0,0z" style="fill: rgb(0, 111, 0); transform: matrix(1.12866, -3.10098, 2.02033, 0.73534, 356.248, 270);"></path><path data-svg-origin="0 0" d="M0,0 Q5,-5 10,0 5,5 0,0z" style="fill: rgb(0, 145, 0); transform: matrix(-3.35814, -0.53187, 0.34415, -2.17291, 356.248, 275);"></path><path data-svg-origin="0 0" d="M0,0 Q5,-5 10,0 5,5 0,0z" style="fill: rgb(0, 125, 0); transform: matrix(3.34706, -1.0233, 0.65783, 2.15168, 354.904, 280);"></path><path data-svg-origin="0 0" d="M0,0 Q5,-5 10,0 5,5 0,0z" style="fill: rgb(0, 152, 0); transform: matrix(-0.25112, -3.59123, 2.29439, -0.16043, 355.709, 285);"></path><path data-svg-origin="0 0" d="M0,0 Q5,-5 10,0 5,5 0,0z" style="fill: rgb(0, 112, 0); transform: matrix(3.60516, -0.83231, 0.52863, 2.28976, 354.785, 290);"></path><path data-svg-origin="0 0" d="M0,0 Q5,-5 10,0 5,5 0,0z" style="fill: rgb(0, 114, 0); transform: matrix(-2.99444, -2.33951, 1.47758, -1.89122, 354.932, 295);"></path><path data-svg-origin="0 0" d="M0,0 Q5,-5 10,0 5,5 0,0z" style="fill: rgb(0, 116, 0); transform: matrix(-1.20516, -3.70912, 2.33008, -0.75709, 354.512, 300);"></path><path data-svg-origin="0 0" d="M0,0 Q5,-5 10,0 5,5 0,0z" style="fill: rgb(0, 152, 0); transform: matrix(0.99026, -0.13917, 0.13917, 0.99026, 259.927, 120);"></path><path data-svg-origin="0 0" d="M0,0 Q5,-5 10,0 5,5 0,0z" style="fill: rgb(0, 149, 0); transform: matrix(-0.46488, -0.99693, 0.95162, -0.44374, 258.772, 125);"></path><path data-svg-origin="0 0" d="M0,0 Q5,-5 10,0 5,5 0,0z" style="fill: rgb(0, 115, 0); transform: matrix(-0.98298, -0.68829, 0.63093, -0.90106, 254.992, 130);"></path><path data-svg-origin="0 0" d="M0,0 Q5,-5 10,0 5,5 0,0z" style="fill: rgb(0, 137, 0); transform: matrix(0.85287, -0.98112, 0.86791, 0.75446, 253.508, 135);"></path><path data-svg-origin="0 0" d="M0,0 Q5,-5 10,0 5,5 0,0z" style="fill: rgb(0, 148, 0); transform: matrix(1.0404, -0.93678, 0.80295, 0.89177, 250.96, 140);"></path><path data-svg-origin="0 0" d="M0,0 Q5,-5 10,0 5,5 0,0z" style="fill: rgb(0, 133, 0); transform: matrix(-1.5, 0, 0, -1.25, 249.889, 145);"></path><path data-svg-origin="0 0" d="M0,0 Q5,-5 10,0 5,5 0,0z" style="fill: rgb(0, 157, 0); transform: matrix(1.26081, -0.98505, 0.80035, 1.02441, 248.139, 150);"></path><path data-svg-origin="0 0" d="M0,0 Q5,-5 10,0 5,5 0,0z" style="fill: rgb(0, 119, 0); transform: matrix(0.05932, -1.69896, 1.34917, 0.04711, 250.197, 155);"></path><path data-svg-origin="0 0" d="M0,0 Q5,-5 10,0 5,5 0,0z" style="fill: rgb(0, 113, 0); transform: matrix(-1.29481, -1.25038, 0.97252, -1.00707, 246.837, 160);"></path><path data-svg-origin="0 0" d="M0,0 Q5,-5 10,0 5,5 0,0z" style="fill: rgb(0, 154, 0); transform: matrix(1.79648, -0.61857, 0.47207, 1.371, 244.863, 165);"></path><path data-svg-origin="0 0" d="M0,0 Q5,-5 10,0 5,5 0,0z" style="fill: rgb(0, 131, 0); transform: matrix(1.81261, -0.84523, 0.63392, 1.35946, 247.439, 170);"></path><path data-svg-origin="0 0" d="M0,0 Q5,-5 10,0 5,5 0,0z" style="fill: rgb(0, 138, 0); transform: matrix(-0.32851, -2.07414, 1.53091, -0.24247, 249.329, 175);"></path><path data-svg-origin="0 0" d="M0,0 Q5,-5 10,0 5,5 0,0z" style="fill: rgb(0, 117, 0); transform: matrix(1.77983, -1.29312, 0.94045, 1.29442, 252.409, 180);"></path><path data-svg-origin="0 0" d="M0,0 Q5,-5 10,0 5,5 0,0z" style="fill: rgb(0, 137, 0); transform: matrix(-2.29964, -0.04014, 0.02879, -1.64974, 251.807, 185);"></path><path data-svg-origin="0 0" d="M0,0 Q5,-5 10,0 5,5 0,0z" style="fill: rgb(0, 129, 0); transform: matrix(2.17513, -1.01428, 0.71845, 1.54072, 252.689, 190);"></path><path data-svg-origin="0 0" d="M0,0 Q5,-5 10,0 5,5 0,0z" style="fill: rgb(0, 113, 0); transform: matrix(-2.46201, -0.43412, 0.30388, -1.72341, 250.106, 195);"></path><path data-svg-origin="0 0" d="M0,0 Q5,-5 10,0 5,5 0,0z" style="fill: rgb(0, 114, 0); transform: matrix(-1.4539, -2.15549, 1.49226, -1.00654, 248.426, 200);"></path><path data-svg-origin="0 0" d="M0,0 Q5,-5 10,0 5,5 0,0z" style="fill: rgb(0, 113, 0); transform: matrix(2.65898, -0.46885, 0.32124, 1.82189, 250.064, 205);"></path><path data-svg-origin="0 0" d="M0,0 Q5,-5 10,0 5,5 0,0z" style="fill: rgb(0, 136, 0); transform: matrix(-0.53426, -2.74855, 1.86509, -0.36253, 251.128, 210);"></path><path data-svg-origin="0 0" d="M0,0 Q5,-5 10,0 5,5 0,0z" style="fill: rgb(0, 139, 0); transform: matrix(-2.86429, -0.45365, 0.30504, -1.92599, 249.833, 215);"></path><path data-svg-origin="0 0" d="M0,0 Q5,-5 10,0 5,5 0,0z" style="fill: rgb(0, 139, 0); transform: matrix(2.88378, -0.82691, 0.55127, 1.92252, 250.589, 220);"></path><path data-svg-origin="0 0" d="M0,0 Q5,-5 10,0 5,5 0,0z" style="fill: rgb(0, 153, 0); transform: matrix(-1.11094, -2.89409, 1.91383, -0.73465, 253.039, 225);"></path><path data-svg-origin="0 0" d="M0,0 Q5,-5 10,0 5,5 0,0z" style="fill: rgb(0, 145, 0); transform: matrix(0.22322, -3.1922, 2.09488, 0.14648, 253.753, 230);"></path><path data-svg-origin="0 0" d="M0,0 Q5,-5 10,0 5,5 0,0z" style="fill: rgb(0, 136, 0); transform: matrix(1.8928, -2.7032, 1.76117, 1.23318, 252.598, 235);"></path><path data-svg-origin="0 0" d="M0,0 Q5,-5 10,0 5,5 0,0z" style="fill: rgb(0, 152, 0); transform: matrix(-0.41435, -3.37465, 2.1836, -0.26811, 252.598, 240);"></path><path data-svg-origin="0 0" d="M0,0 Q5,-5 10,0 5,5 0,0z" style="fill: rgb(0, 156, 0); transform: matrix(-1.19707, -3.28892, 2.1143, -0.76954, 253.032, 245);"></path><path data-svg-origin="0 0" d="M0,0 Q5,-5 10,0 5,5 0,0z" style="fill: rgb(0, 114, 0); transform: matrix(-3.53385, -0.68691, 0.43886, -2.25774, 252.192, 250);"></path><path data-svg-origin="0 0" d="M0,0 Q5,-5 10,0 5,5 0,0z" style="fill: rgb(0, 115, 0); transform: matrix(0.45091, -3.67242, 2.33248, 0.28639, 250.568, 255);"></path><path data-svg-origin="0 0" d="M0,0 Q5,-5 10,0 5,5 0,0z" style="fill: rgb(0, 122, 0); transform: matrix(-3.57083, -1.29967, 0.82084, -2.25526, 251.352, 260);"></path><path data-svg-origin="0 0" d="M0,0 Q5,-5 10,0 5,5 0,0z" style="fill: rgb(0, 148, 0); transform: matrix(3.03086, -2.45434, 1.54183, 1.904, 252.864, 265);"></path><path data-svg-origin="0 0" d="M0,0 Q5,-5 10,0 5,5 0,0z" style="fill: rgb(0, 130, 0); transform: matrix(0.99254, -0.12186, 0.12186, 0.99254, 425.11, 180);"></path><path data-svg-origin="0 0" d="M0,0 Q5,-5 10,0 5,5 0,0z" style="fill: rgb(0, 157, 0); transform: matrix(1.08328, -0.19101, 0.18233, 1.03404, 422.401, 185);"></path><path data-svg-origin="0 0" d="M0,0 Q5,-5 10,0 5,5 0,0z" style="fill: rgb(0, 153, 0); transform: matrix(0.83359, -0.8632, 0.79127, 0.76412, 425.341, 190);"></path><path data-svg-origin="0 0" d="M0,0 Q5,-5 10,0 5,5 0,0z" style="fill: rgb(0, 155, 0); transform: matrix(1.02441, -0.80035, 0.70801, 0.90621, 427.063, 195);"></path><path data-svg-origin="0 0" d="M0,0 Q5,-5 10,0 5,5 0,0z" style="fill: rgb(0, 155, 0); transform: matrix(-0.47882, -1.31556, 1.12763, -0.41042, 424.543, 200);"></path><path data-svg-origin="0 0" d="M0,0 Q5,-5 10,0 5,5 0,0z" style="fill: rgb(0, 123, 0); transform: matrix(-1.11471, -1.00369, 0.83641, -0.92893, 422.632, 205);"></path><path data-svg-origin="0 0" d="M0,0 Q5,-5 10,0 5,5 0,0z" style="fill: rgb(0, 114, 0); transform: matrix(-0.41411, -1.54548, 1.2557, -0.33646, 422.898, 210);"></path><path data-svg-origin="0 0" d="M0,0 Q5,-5 10,0 5,5 0,0z" style="fill: rgb(0, 114, 0); transform: matrix(0.7981, -1.50101, 1.19197, 0.63378, 423.416, 215);"></path><path data-svg-origin="0 0" d="M0,0 Q5,-5 10,0 5,5 0,0z" style="fill: rgb(0, 156, 0); transform: matrix(1.7119, -0.55623, 0.43262, 1.33147, 423.92, 220);"></path><path data-svg-origin="0 0" d="M0,0 Q5,-5 10,0 5,5 0,0z" style="fill: rgb(0, 114, 0); transform: matrix(0.5555, -1.81697, 1.38664, 0.42393, 424.9, 225);"></path><path data-svg-origin="0 0" d="M0,0 Q5,-5 10,0 5,5 0,0z" style="fill: rgb(0, 123, 0); transform: matrix(-1.14715, -1.6383, 1.22872, -0.86036, 426.09, 230);"></path><path data-svg-origin="0 0" d="M0,0 Q5,-5 10,0 5,5 0,0z" style="fill: rgb(0, 153, 0); transform: matrix(1.98558, -0.68369, 0.50463, 1.46555, 427.476, 235);"></path><path data-svg-origin="0 0" d="M0,0 Q5,-5 10,0 5,5 0,0z" style="fill: rgb(0, 122, 0); transform: matrix(1.23022, -1.82388, 1.32646, 0.8947, 425.684, 240);"></path><path data-svg-origin="0 0" d="M0,0 Q5,-5 10,0 5,5 0,0z" style="fill: rgb(0, 157, 0); transform: matrix(-0.82424, -2.14723, 1.5404, -0.5913, 425.467, 245);"></path><path data-svg-origin="0 0" d="M0,0 Q5,-5 10,0 5,5 0,0z" style="fill: rgb(0, 159, 0); transform: matrix(2.25526, -0.82084, 0.58143, 1.59747, 426.727, 250);"></path><path data-svg-origin="0 0" d="M0,0 Q5,-5 10,0 5,5 0,0z" style="fill: rgb(0, 143, 0); transform: matrix(2.43592, -0.56237, 0.39366, 1.70514, 428.148, 255);"></path><path data-svg-origin="0 0" d="M0,0 Q5,-5 10,0 5,5 0,0z" style="fill: rgb(0, 147, 0); transform: matrix(2.02057, -1.63623, 1.13277, 1.39886, 427.168, 260);"></path><path data-svg-origin="0 0" d="M0,0 Q5,-5 10,0 5,5 0,0z" style="fill: rgb(0, 119, 0); transform: matrix(2.09829, -1.69916, 1.16424, 1.43772, 425.089, 265);"></path><path data-svg-origin="0 0" d="M0,0 Q5,-5 10,0 5,5 0,0z" style="fill: rgb(0, 143, 0); transform: matrix(-1.97989, -1.97989, 1.3435, -1.3435, 424.361, 270);"></path><path data-svg-origin="0 0" d="M0,0 Q5,-5 10,0 5,5 0,0z" style="fill: rgb(0, 128, 0); transform: matrix(-0.1012, -2.89823, 1.94881, -0.06805, 424.536, 275);"></path><path data-svg-origin="0 0" d="M0,0 Q5,-5 10,0 5,5 0,0z" style="fill: rgb(0, 158, 0); transform: matrix(2.97763, -0.3656, 0.24373, 1.98509, 424.704, 280);"></path><path data-svg-origin="0 0" d="M0,0 Q5,-5 10,0 5,5 0,0z" style="fill: rgb(0, 152, 0); transform: matrix(-3.09575, -0.16224, 0.10728, -2.04719, 424.865, 285);"></path><path data-svg-origin="0 0" d="M0,0 Q5,-5 10,0 5,5 0,0z" style="fill: rgb(0, 157, 0); transform: matrix(2.98745, -1.14677, 0.75257, 1.96051, 423.633, 290);"></path><path data-svg-origin="0 0" d="M0,0 Q5,-5 10,0 5,5 0,0z" style="fill: rgb(0, 148, 0); transform: matrix(-2.20813, -2.45237, 1.59776, -1.43863, 423.78, 295);"></path><path data-svg-origin="0 0" d="M0,0 Q5,-5 10,0 5,5 0,0z" style="fill: rgb(0, 133, 0); transform: matrix(-3.37465, -0.41435, 0.26811, -2.1836, 424.2, 300);"></path><path data-svg-origin="0 0" d="M0,0 Q5,-5 10,0 5,5 0,0z" style="fill: rgb(0, 127, 0); transform: matrix(0.4871, -3.46593, 2.2281, 0.31313, 424.998, 305);"></path><path data-svg-origin="0 0" d="M0,0 Q5,-5 10,0 5,5 0,0z" style="fill: rgb(0, 126, 0); transform: matrix(-0.3763, -3.58027, 2.2874, -0.24041, 426.258, 310);"></path><path data-svg-origin="0 0" d="M0,0 Q5,-5 10,0 5,5 0,0z" style="fill: rgb(0, 118, 0); transform: matrix(3.49841, -1.2046, 0.76508, 2.22196, 425.306, 315);"></path><path data-svg-origin="0 0" d="M0,0 Q5,-5 10,0 5,5 0,0z" style="fill: rgb(0, 143, 0); transform: matrix(-3.8, 0, 0, -2.4, 425.754, 320);"></path><path data-svg-origin="0 0" d="M0,0 Q5,-5 10,0 5,5 0,0z" style="fill: rgb(0, 119, 0); transform: matrix(3.87863, -0.40766, 0.25609, 2.43657, 425.229, 325);"></path><path data-svg-origin="0 0" d="M0,0 Q5,-5 10,0 5,5 0,0z" style="fill: rgb(0, 142, 0); transform: matrix(-0.39073, -0.9205, 0.9205, -0.39073, 178.714, 205);"></path><path data-svg-origin="0 0" d="M0,0 Q5,-5 10,0 5,5 0,0z" style="fill: rgb(0, 146, 0); transform: matrix(0.46488, -0.99693, 0.95162, 0.44374, 176.586, 210);"></path><path data-svg-origin="0 0" d="M0,0 Q5,-5 10,0 5,5 0,0z" style="fill: rgb(0, 130, 0); transform: matrix(-1.1046, -0.46887, 0.4298, -1.01255, 174.773, 215);"></path><path data-svg-origin="0 0" d="M0,0 Q5,-5 10,0 5,5 0,0z" style="fill: rgb(0, 141, 0); transform: matrix(1.1782, -0.5494, 0.48601, 1.04225, 174.521, 220);"></path><path data-svg-origin="0 0" d="M0,0 Q5,-5 10,0 5,5 0,0z" style="fill: rgb(0, 150, 0); transform: matrix(0.88104, -1.088, 0.93257, 0.75518, 176.481, 225);"></path><path data-svg-origin="0 0" d="M0,0 Q5,-5 10,0 5,5 0,0z" style="fill: rgb(0, 121, 0); transform: matrix(1.47721, -0.26047, 0.21706, 1.231, 174.101, 230);"></path><path data-svg-origin="0 0" d="M0,0 Q5,-5 10,0 5,5 0,0z" style="fill: rgb(0, 150, 0); transform: matrix(-0.91772, -1.31064, 1.06489, -0.74564, 173.408, 235);"></path><path data-svg-origin="0 0" d="M0,0 Q5,-5 10,0 5,5 0,0z" style="fill: rgb(0, 117, 0); transform: matrix(0.66424, -1.56485, 1.24268, 0.52748, 173.408, 240);"></path><path data-svg-origin="0 0" d="M0,0 Q5,-5 10,0 5,5 0,0z" style="fill: rgb(0, 133, 0); transform: matrix(1.05801, -1.45623, 1.13262, 0.82289, 171.889, 245);"></path><path data-svg-origin="0 0" d="M0,0 Q5,-5 10,0 5,5 0,0z" style="fill: rgb(0, 149, 0); transform: matrix(-1.55638, -1.08979, 0.83168, -1.18777, 171.259, 250);"></path><path data-svg-origin="0 0" d="M0,0 Q5,-5 10,0 5,5 0,0z" style="fill: rgb(0, 148, 0); transform: matrix(-1.11838, -1.65807, 1.24355, -0.83878, 170.853, 255);"></path><path data-svg-origin="0 0" d="M0,0 Q5,-5 10,0 5,5 0,0z" style="fill: rgb(0, 126, 0); transform: matrix(0.88749, -1.90324, 1.40477, 0.65505, 172.225, 260);"></path><path data-svg-origin="0 0" d="M0,0 Q5,-5 10,0 5,5 0,0z" style="fill: rgb(0, 121, 0); transform: matrix(1.50039, -1.60897, 1.17016, 1.09119, 173.17, 265);"></path><path data-svg-origin="0 0" d="M0,0 Q5,-5 10,0 5,5 0,0z" style="fill: rgb(0, 147, 0); transform: matrix(2.29439, -0.16043, 0.11509, 1.64598, 171.532, 270);"></path><path data-svg-origin="0 0" d="M0,0 Q5,-5 10,0 5,5 0,0z" style="fill: rgb(0, 112, 0); transform: matrix(1.96596, -1.37658, 0.97507, 1.39255, 172.757, 275);"></path><path data-svg-origin="0 0" d="M0,0 Q5,-5 10,0 5,5 0,0z" style="fill: rgb(0, 153, 0); transform: matrix(-0.6048, -2.42573, 1.69801, -0.42336, 172.253, 280);"></path><path data-svg-origin="0 0" d="M0,0 Q5,-5 10,0 5,5 0,0z" style="fill: rgb(0, 160, 0); transform: matrix(-2.59841, -0.09073, 0.06281, -1.7989, 171.77, 285);"></path><path data-svg-origin="0 0" d="M0,0 Q5,-5 10,0 5,5 0,0z" style="fill: rgb(0, 160, 0); transform: matrix(-1.80665, -2.00649, 1.37481, -1.23789, 173.002, 290);"></path><path data-svg-origin="0 0" d="M0,0 Q5,-5 10,0 5,5 0,0z" style="fill: rgb(0, 119, 0); transform: matrix(-2.01415, -1.94504, 1.31985, -1.36674, 171.532, 295);"></path><path data-svg-origin="0 0" d="M0,0 Q5,-5 10,0 5,5 0,0z" style="fill: rgb(0, 148, 0); transform: matrix(-1.22559, -2.62829, 1.7673, -0.8241, 170.972, 300);"></path><path data-svg-origin="0 0" d="M0,0 Q5,-5 10,0 5,5 0,0z" style="fill: rgb(0, 121, 0); transform: matrix(-1.63391, -2.51601, 1.67734, -1.08927, 172.036, 305);"></path><path data-svg-origin="0 0" d="M0,0 Q5,-5 10,0 5,5 0,0z" style="fill: rgb(0, 155, 0); transform: matrix(-1.59661, -2.65721, 1.75719, -1.05582, 171.784, 310);"></path><path data-svg-origin="0 0" d="M0,0 Q5,-5 10,0 5,5 0,0z" style="fill: rgb(0, 141, 0); transform: matrix(-3.07603, -0.88203, 0.57883, -2.01864, 172.26, 315);"></path><path data-svg-origin="0 0" d="M0,0 Q5,-5 10,0 5,5 0,0z" style="fill: rgb(0, 134, 0); transform: matrix(-1.34223, -3.0147, 1.96412, -0.87448, 172.596, 320);"></path><path data-svg-origin="0 0" d="M0,0 Q5,-5 10,0 5,5 0,0z" style="fill: rgb(0, 154, 0); transform: matrix(-3.36691, -0.47318, 0.30618, -2.17858, 171.966, 325);"></path><path data-svg-origin="0 0" d="M0,0 Q5,-5 10,0 5,5 0,0z" style="fill: rgb(0, 120, 0); transform: matrix(2.05724, -2.83155, 1.82028, 1.32251, 171.084, 330);"></path><path data-svg-origin="0 0" d="M0,0 Q5,-5 10,0 5,5 0,0z" style="fill: rgb(0, 133, 0); transform: matrix(2.63287, -2.45519, 1.56859, 1.68211, 170.72, 335);"></path><path data-svg-origin="0 0" d="M0,0 Q5,-5 10,0 5,5 0,0z" style="fill: rgb(0, 133, 0); transform: matrix(-3.7, 0, 0, -2.35, 171.56, 340);"></path><path data-svg-origin="0 0" d="M0,0 Q5,-5 10,0 5,5 0,0z" style="fill: rgb(0, 159, 0); transform: matrix(3.63395, -1.11101, 0.70169, 2.29513, 170.944, 345);"></path><path data-svg-origin="0 0" d="M0,0 Q5,-5 10,0 5,5 0,0z" style="fill: rgb(0, 133, 0); transform: matrix(-3.37749, -1.95, 1.22499, -2.12176, 171.364, 350);"></path><path data-svg-origin="0 0" d="M0,0 Q5,-5 10,0 5,5 0,0z" style="fill: rgb(0, 149, 0); transform: matrix(-0.79863, -0.60181, 0.60181, -0.79863, 298.358, 125);"></path><path data-svg-origin="0 0" d="M0,0 Q5,-5 10,0 5,5 0,0z" style="fill: rgb(0, 159, 0); transform: matrix(-0.80448, -0.75019, 0.71609, -0.76792, 295.712, 130);"></path><path data-svg-origin="0 0" d="M0,0 Q5,-5 10,0 5,5 0,0z" style="fill: rgb(0, 114, 0); transform: matrix(-0.2903, -1.16435, 1.06732, -0.26611, 292.373, 135);"></path><path data-svg-origin="0 0" d="M0,0 Q5,-5 10,0 5,5 0,0z" style="fill: rgb(0, 147, 0); transform: matrix(-0.95075, -0.88659, 0.78429, -0.84105, 293.465, 140);"></path><path data-svg-origin="0 0" d="M0,0 Q5,-5 10,0 5,5 0,0z" style="fill: rgb(0, 124, 0); transform: matrix(0.12201, -1.39467, 1.19543, 0.10458, 296.678, 145);"></path><path data-svg-origin="0 0" d="M0,0 Q5,-5 10,0 5,5 0,0z" style="fill: rgb(0, 128, 0); transform: matrix(-1.37031, -0.6101, 0.50842, -1.14193, 293.528, 150);"></path><path data-svg-origin="0 0" d="M0,0 Q5,-5 10,0 5,5 0,0z" style="fill: rgb(0, 134, 0); transform: matrix(-0.02792, -1.59975, 1.2998, -0.02268, 291.127, 155);"></path><path data-svg-origin="0 0" d="M0,0 Q5,-5 10,0 5,5 0,0z" style="fill: rgb(0, 133, 0); transform: matrix(-0.52532, -1.61679, 1.28392, -0.41717, 290.119, 160);"></path><path data-svg-origin="0 0" d="M0,0 Q5,-5 10,0 5,5 0,0z" style="fill: rgb(0, 112, 0); transform: matrix(0.73212, -1.64438, 1.27896, 0.56943, 292.422, 165);"></path><path data-svg-origin="0 0" d="M0,0 Q5,-5 10,0 5,5 0,0z" style="fill: rgb(0, 134, 0); transform: matrix(1.00684, -1.61129, 1.22966, 0.76838, 294.032, 170);"></path><path data-svg-origin="0 0" d="M0,0 Q5,-5 10,0 5,5 0,0z" style="fill: rgb(0, 117, 0); transform: matrix(-1.25864, -1.55429, 1.16571, -0.94398, 292.457, 175);"></path><path data-svg-origin="0 0" d="M0,0 Q5,-5 10,0 5,5 0,0z" style="fill: rgb(0, 110, 0); transform: matrix(1.37772, -1.58489, 1.16979, 1.01689, 293.689, 180);"></path><path data-svg-origin="0 0" d="M0,0 Q5,-5 10,0 5,5 0,0z" style="fill: rgb(0, 138, 0); transform: matrix(1.97734, -0.96441, 0.70139, 1.43807, 296.699, 185);"></path><path data-svg-origin="0 0" d="M0,0 Q5,-5 10,0 5,5 0,0z" style="fill: rgb(0, 118, 0); transform: matrix(-0.55642, -2.23168, 1.60098, -0.39917, 299.051, 190);"></path><path data-svg-origin="0 0" d="M0,0 Q5,-5 10,0 5,5 0,0z" style="fill: rgb(0, 121, 0); transform: matrix(2.34755, -0.49898, 0.35344, 1.66285, 296.181, 195);"></path><path data-svg-origin="0 0" d="M0,0 Q5,-5 10,0 5,5 0,0z" style="fill: rgb(0, 142, 0); transform: matrix(2.40315, -0.68909, 0.48236, 1.6822, 297.301, 200);"></path><path data-svg-origin="0 0" d="M0,0 Q5,-5 10,0 5,5 0,0z" style="fill: rgb(0, 119, 0); transform: matrix(-0.31686, -2.58061, 1.78658, -0.21936, 297.847, 205);"></path><path data-svg-origin="0 0" d="M0,0 Q5,-5 10,0 5,5 0,0z" style="fill: rgb(0, 128, 0); transform: matrix(1.84139, -1.97465, 1.353, 1.26169, 295.187, 210);"></path><path data-svg-origin="0 0" d="M0,0 Q5,-5 10,0 5,5 0,0z" style="fill: rgb(0, 131, 0); transform: matrix(2.61402, -1.00343, 0.68089, 1.7738, 294.151, 215);"></path><path data-svg-origin="0 0" d="M0,0 Q5,-5 10,0 5,5 0,0z" style="fill: rgb(0, 128, 0); transform: matrix(2.83662, -0.60294, 0.40542, 1.90738, 294.403, 220);"></path><path data-svg-origin="0 0" d="M0,0 Q5,-5 10,0 5,5 0,0z" style="fill: rgb(0, 157, 0); transform: matrix(-1.80544, -2.3959, 1.59727, -1.20363, 295.628, 225);"></path><path data-svg-origin="0 0" d="M0,0 Q5,-5 10,0 5,5 0,0z" style="fill: rgb(0, 126, 0); transform: matrix(2.53937, -1.77808, 1.17583, 1.67926, 294.2, 230);"></path><path data-svg-origin="0 0" d="M0,0 Q5,-5 10,0 5,5 0,0z" style="fill: rgb(0, 134, 0); transform: matrix(2.77128, -1.6, 1.04999, 1.81865, 294.662, 235);"></path><path data-svg-origin="0 0" d="M0,0 Q5,-5 10,0 5,5 0,0z" style="fill: rgb(0, 159, 0); transform: matrix(3.17216, -0.9096, 0.59262, 2.06671, 296.23, 240);"></path><path data-svg-origin="0 0" d="M0,0 Q5,-5 10,0 5,5 0,0z" style="fill: rgb(0, 134, 0); transform: matrix(-1.85177, -2.85147, 1.84507, -1.1982, 295.796, 245);"></path><path data-svg-origin="0 0" d="M0,0 Q5,-5 10,0 5,5 0,0z" style="fill: rgb(0, 121, 0); transform: matrix(1.25428, -3.26753, 2.10055, 0.80632, 295.166, 250);"></path><path data-svg-origin="0 0" d="M0,0 Q5,-5 10,0 5,5 0,0z" style="fill: rgb(0, 122, 0); transform: matrix(-1.40663, -3.31381, 2.11716, -0.89868, 293.339, 255);"></path><path data-svg-origin="0 0" d="M0,0 Q5,-5 10,0 5,5 0,0z" style="fill: rgb(0, 130, 0); transform: matrix(-1.73704, -3.2669, 2.07492, -1.10325, 294.123, 260);"></path><path data-svg-origin="0 0" d="M0,0 Q5,-5 10,0 5,5 0,0z" style="fill: rgb(0, 140, 0); transform: matrix(3.79942, -0.06631, 0.04188, 2.39963, 292.611, 265);"></path><path data-svg-origin="0 0" d="M0,0 Q5,-5 10,0 5,5 0,0z" style="fill: rgb(0, 138, 0); transform: matrix(-3.34295, -2.00864, 1.26184, -2.10005, 293.339, 270);"></path><path data-svg-origin="0 0" d="M0,0 Q5,-5 10,0 5,5 0,0z" style="fill: rgb(0, 110, 0); transform: matrix(0.76604, -0.64278, 0.64278, 0.76604, 390.721, 215);"></path><path data-svg-origin="0 0" d="M0,0 Q5,-5 10,0 5,5 0,0z" style="fill: rgb(0, 154, 0); transform: matrix(-1.1, 0, 0, -1.05, 389.965, 220);"></path><path data-svg-origin="0 0" d="M0,0 Q5,-5 10,0 5,5 0,0z" style="fill: rgb(0, 146, 0); transform: matrix(0.73879, -0.94561, 0.86681, 0.67722, 391.68, 225);"></path><path data-svg-origin="0 0" d="M0,0 Q5,-5 10,0 5,5 0,0z" style="fill: rgb(0, 142, 0); transform: matrix(-0.93514, -0.90305, 0.79885, -0.82724, 392.632, 230);"></path><path data-svg-origin="0 0" d="M0,0 Q5,-5 10,0 5,5 0,0z" style="fill: rgb(0, 117, 0); transform: matrix(1.07246, -0.8999, 0.77134, 0.91925, 392.17, 235);"></path><path data-svg-origin="0 0" d="M0,0 Q5,-5 10,0 5,5 0,0z" style="fill: rgb(0, 126, 0); transform: matrix(1.4854, -0.20875, 0.17396, 1.23783, 390.154, 240);"></path><path data-svg-origin="0 0" d="M0,0 Q5,-5 10,0 5,5 0,0z" style="fill: rgb(0, 143, 0); transform: matrix(0.22267, -1.58442, 1.28734, 0.18092, 391.456, 245);"></path><path data-svg-origin="0 0" d="M0,0 Q5,-5 10,0 5,5 0,0z" style="fill: rgb(0, 149, 0); transform: matrix(1.33961, -1.04662, 0.83114, 1.06381, 389.146, 250);"></path><path data-svg-origin="0 0" d="M0,0 Q5,-5 10,0 5,5 0,0z" style="fill: rgb(0, 115, 0); transform: matrix(-0.81718, -1.60381, 1.2474, -0.63558, 389.755, 255);"></path><path data-svg-origin="0 0" d="M0,0 Q5,-5 10,0 5,5 0,0z" style="fill: rgb(0, 129, 0); transform: matrix(1.84356, -0.45965, 0.35078, 1.40692, 388.383, 260);"></path><path data-svg-origin="0 0" d="M0,0 Q5,-5 10,0 5,5 0,0z" style="fill: rgb(0, 128, 0); transform: matrix(-0.84523, -1.81261, 1.35946, -0.63392, 387.249, 265);"></path><path data-svg-origin="0 0" d="M0,0 Q5,-5 10,0 5,5 0,0z" style="fill: rgb(0, 140, 0); transform: matrix(0.40069, -2.06141, 1.52152, 0.29575, 387.795, 270);"></path><path data-svg-origin="0 0" d="M0,0 Q5,-5 10,0 5,5 0,0z" style="fill: rgb(0, 113, 0); transform: matrix(-0.41977, -2.15957, 1.5706, -0.30529, 386.395, 275);"></path><path data-svg-origin="0 0" d="M0,0 Q5,-5 10,0 5,5 0,0z" style="fill: rgb(0, 116, 0); transform: matrix(1.95051, -1.21881, 0.87436, 1.39927, 385.723, 280);"></path><path data-svg-origin="0 0" d="M0,0 Q5,-5 10,0 5,5 0,0z" style="fill: rgb(0, 135, 0); transform: matrix(-1.78354, -1.60591, 1.13752, -1.26334, 383.952, 285);"></path><path data-svg-origin="0 0" d="M0,0 Q5,-5 10,0 5,5 0,0z" style="fill: rgb(0, 156, 0); transform: matrix(2.46922, -0.39108, 0.27376, 1.72845, 384.568, 290);"></path><path data-svg-origin="0 0" d="M0,0 Q5,-5 10,0 5,5 0,0z" style="fill: rgb(0, 145, 0); transform: matrix(-1.90151, -1.77319, 1.22759, -1.31643, 383.392, 295);"></path><path data-svg-origin="0 0" d="M0,0 Q5,-5 10,0 5,5 0,0z" style="fill: rgb(0, 128, 0); transform: matrix(0.23532, -2.68972, 1.84296, 0.16123, 382.692, 300);"></path><path data-svg-origin="0 0" d="M0,0 Q5,-5 10,0 5,5 0,0z" style="fill: rgb(0, 111, 0); transform: matrix(2.64745, -0.91159, 0.61857, 1.79648, 383.091, 305);"></path><path data-svg-origin="0 0" d="M0,0 Q5,-5 10,0 5,5 0,0z" style="fill: rgb(0, 155, 0); transform: matrix(1.66337, -2.37554, 1.59734, 1.11847, 382.965, 310);"></path><path data-svg-origin="0 0" d="M0,0 Q5,-5 10,0 5,5 0,0z" style="fill: rgb(0, 156, 0); transform: matrix(2.76151, -1.17219, 0.78146, 1.841, 384.155, 315);"></path><path data-svg-origin="0 0" d="M0,0 Q5,-5 10,0 5,5 0,0z" style="fill: rgb(0, 112, 0); transform: matrix(-0.5915, -3.04304, 2.01233, -0.39115, 383.147, 320);"></path><path data-svg-origin="0 0" d="M0,0 Q5,-5 10,0 5,5 0,0z" style="fill: rgb(0, 117, 0); transform: matrix(2.05692, -2.45134, 1.60869, 1.34985, 382.937, 325);"></path><path data-svg-origin="0 0" d="M0,0 Q5,-5 10,0 5,5 0,0z" style="fill: rgb(0, 142, 0); transform: matrix(1.07437, -3.12021, 2.03286, 0.69997, 382.055, 330);"></path><path data-svg-origin="0 0" d="M0,0 Q5,-5 10,0 5,5 0,0z" style="fill: rgb(0, 150, 0); transform: matrix(2.78511, -1.95015, 1.26186, 1.80213, 381.782, 335);"></path><path data-svg-origin="0 0" d="M0,0 Q5,-5 10,0 5,5 0,0z" style="fill: rgb(0, 124, 0); transform: matrix(3.49946, -0.06108, 0.03926, 2.24965, 382.118, 340);"></path><path data-svg-origin="0 0" d="M0,0 Q5,-5 10,0 5,5 0,0z" style="fill: rgb(0, 156, 0); transform: matrix(-1.79999, -3.11769, 1.99185, -1.14999, 382.426, 345);"></path><path data-svg-origin="0 0" d="M0,0 Q5,-5 10,0 5,5 0,0z" style="fill: rgb(0, 143, 0); transform: matrix(2.42741, -2.79242, 1.77356, 1.54173, 382.636, 350);"></path><path data-svg-origin="0 0" d="M0,0 Q5,-5 10,0 5,5 0,0z" style="fill: rgb(0, 137, 0); transform: matrix(3.61401, -1.17426, 0.74164, 2.28253, 382.825, 355);"></path><path data-svg-origin="0 0" d="M0,0 Q5,-5 10,0 5,5 0,0z" style="fill: rgb(0, 145, 0); transform: matrix(-2.70916, -2.80542, 1.76238, -1.70191, 383.105, 360);"></path><path data-svg-origin="0 0" d="M0,0 Q5,-5 10,0 5,5 0,0z" style="fill: rgb(0, 114, 0); transform: matrix(0.68199, -0.73135, 0.73135, 0.68199, 226.934, 135);"></path><path data-svg-origin="0 0" d="M0,0 Q5,-5 10,0 5,5 0,0z" style="fill: rgb(0, 137, 0); transform: matrix(-0.69225, -0.85486, 0.816, -0.66078, 222.93, 140);"></path><path data-svg-origin="0 0" d="M0,0 Q5,-5 10,0 5,5 0,0z" style="fill: rgb(0, 128, 0); transform: matrix(-0.70534, -0.97082, 0.88991, -0.64656, 222.216, 145);"></path><path data-svg-origin="0 0" d="M0,0 Q5,-5 10,0 5,5 0,0z" style="fill: rgb(0, 142, 0); transform: matrix(-0.40172, -1.23637, 1.09371, -0.35536, 220.466, 150);"></path><path data-svg-origin="0 0" d="M0,0 Q5,-5 10,0 5,5 0,0z" style="fill: rgb(0, 149, 0); transform: matrix(-0.29107, -1.3694, 1.17377, -0.24949, 220.809, 155);"></path><path data-svg-origin="0 0" d="M0,0 Q5,-5 10,0 5,5 0,0z" style="fill: rgb(0, 158, 0); transform: matrix(0.68098, -1.3365, 1.11375, 0.56748, 221.817, 160);"></path><path data-svg-origin="0 0" d="M0,0 Q5,-5 10,0 5,5 0,0z" style="fill: rgb(0, 126, 0); transform: matrix(-0.35992, -1.55899, 1.26668, -0.29243, 224.778, 165);"></path><path data-svg-origin="0 0" d="M0,0 Q5,-5 10,0 5,5 0,0z" style="fill: rgb(0, 117, 0); transform: matrix(-0.84999, -1.47224, 1.16913, -0.67499, 226.71, 170);"></path><path data-svg-origin="0 0" d="M0,0 Q5,-5 10,0 5,5 0,0z" style="fill: rgb(0, 149, 0); transform: matrix(0.18815, -1.79013, 1.39233, 0.14633, 229.23, 175);"></path><path data-svg-origin="0 0" d="M0,0 Q5,-5 10,0 5,5 0,0z" style="fill: rgb(0, 128, 0); transform: matrix(-0.45965, -1.84356, 1.40692, -0.35078, 229.846, 180);"></path><path data-svg-origin="0 0" d="M0,0 Q5,-5 10,0 5,5 0,0z" style="fill: rgb(0, 151, 0); transform: matrix(0.84523, -1.81261, 1.35946, 0.63392, 226.535, 185);"></path><path data-svg-origin="0 0" d="M0,0 Q5,-5 10,0 5,5 0,0z" style="fill: rgb(0, 118, 0); transform: matrix(0.64893, -1.99721, 1.47413, 0.47897, 224.771, 190);"></path><path data-svg-origin="0 0" d="M0,0 Q5,-5 10,0 5,5 0,0z" style="fill: rgb(0, 149, 0); transform: matrix(-0.30618, -2.17858, 1.58442, -0.22267, 227.641, 195);"></path><path data-svg-origin="0 0" d="M0,0 Q5,-5 10,0 5,5 0,0z" style="fill: rgb(0, 132, 0); transform: matrix(1.539, -1.70923, 1.22618, 1.10406, 226.241, 200);"></path><path data-svg-origin="0 0" d="M0,0 Q5,-5 10,0 5,5 0,0z" style="fill: rgb(0, 114, 0); transform: matrix(-0.25086, -2.38685, 1.69068, -0.17769, 228.971, 205);"></path><path data-svg-origin="0 0" d="M0,0 Q5,-5 10,0 5,5 0,0z" style="fill: rgb(0, 143, 0); transform: matrix(-0.89591, -2.33395, 1.63376, -0.62714, 230.833, 210);"></path><path data-svg-origin="0 0" d="M0,0 Q5,-5 10,0 5,5 0,0z" style="fill: rgb(0, 115, 0); transform: matrix(0.31686, -2.58061, 1.78658, 0.21936, 231.61, 215);"></path><path data-svg-origin="0 0" d="M0,0 Q5,-5 10,0 5,5 0,0z" style="fill: rgb(0, 137, 0); transform: matrix(-2.00649, -1.80665, 1.23789, -1.37481, 229.09, 220);"></path><path data-svg-origin="0 0" d="M0,0 Q5,-5 10,0 5,5 0,0z" style="fill: rgb(0, 121, 0); transform: matrix(0.48621, -2.75746, 1.87113, 0.32993, 229.335, 225);"></path><path data-svg-origin="0 0" d="M0,0 Q5,-5 10,0 5,5 0,0z" style="fill: rgb(0, 148, 0); transform: matrix(2.80118, -0.75057, 0.50469, 1.88355, 227.669, 230);"></path><path data-svg-origin="0 0" d="M0,0 Q5,-5 10,0 5,5 0,0z" style="fill: rgb(0, 143, 0); transform: matrix(2.94488, -0.57242, 0.38161, 1.96325, 227.207, 235);"></path><path data-svg-origin="0 0" d="M0,0 Q5,-5 10,0 5,5 0,0z" style="fill: rgb(0, 114, 0); transform: matrix(-1.86562, -2.47577, 1.6372, -1.23372, 229.223, 240);"></path><path data-svg-origin="0 0" d="M0,0 Q5,-5 10,0 5,5 0,0z" style="fill: rgb(0, 123, 0); transform: matrix(-2.82543, -1.5023, 0.98589, -1.85418, 226.836, 245);"></path><path data-svg-origin="0 0" d="M0,0 Q5,-5 10,0 5,5 0,0z" style="fill: rgb(0, 136, 0); transform: matrix(-3.25937, -0.51623, 0.33633, -2.12352, 225.996, 250);"></path><path data-svg-origin="0 0" d="M0,0 Q5,-5 10,0 5,5 0,0z" style="fill: rgb(0, 138, 0); transform: matrix(2.60455, -2.18547, 1.41413, 1.68529, 226.605, 255);"></path><path data-svg-origin="0 0" d="M0,0 Q5,-5 10,0 5,5 0,0z" style="fill: rgb(0, 150, 0); transform: matrix(-0.4871, -3.46593, 2.2281, -0.31313, 225.821, 260);"></path><path data-svg-origin="0 0" d="M0,0 Q5,-5 10,0 5,5 0,0z" style="fill: rgb(0, 125, 0); transform: matrix(2.87508, -2.16653, 1.38417, 1.83686, 226.388, 265);"></path><path data-svg-origin="0 0" d="M0,0 Q5,-5 10,0 5,5 0,0z" style="fill: rgb(0, 132, 0); transform: matrix(-1.4457, -3.40586, 2.16318, -0.91821, 226.57, 270);"></path><path data-svg-origin="0 0" d="M0,0 Q5,-5 10,0 5,5 0,0z" style="fill: rgb(0, 151, 0); transform: matrix(1.84227, -3.32355, 2.09908, 1.16354, 225.87, 275);"></path><path data-svg-origin="0 0" d="M0,0 Q5,-5 10,0 5,5 0,0z" style="fill: rgb(0, 135, 0); transform: matrix(-3.9, 0, 0, -2.45, 227.214, 280);"></path><path data-svg-origin="0 0" d="M0,0 Q5,-5 10,0 5,5 0,0z" style="fill: rgb(0, 121, 0); transform: matrix(1, 0, 0, 1, 391.153, 170);"></path><path data-svg-origin="0 0" d="M0,0 Q5,-5 10,0 5,5 0,0z" style="fill: rgb(0, 138, 0); transform: matrix(-1.0049, -0.44741, 0.42707, -0.95922, 391.468, 175);"></path><path data-svg-origin="0 0" d="M0,0 Q5,-5 10,0 5,5 0,0z" style="fill: rgb(0, 127, 0); transform: matrix(-1.16435, -0.2903, 0.26611, -1.06732, 391.468, 180);"></path><path data-svg-origin="0 0" d="M0,0 Q5,-5 10,0 5,5 0,0z" style="fill: rgb(0, 153, 0); transform: matrix(-0.31449, -1.26138, 1.11584, -0.27821, 389.662, 185);"></path><path data-svg-origin="0 0" d="M0,0 Q5,-5 10,0 5,5 0,0z" style="fill: rgb(0, 151, 0); transform: matrix(0.56943, -1.27896, 1.09625, 0.48808, 388.486, 190);"></path><path data-svg-origin="0 0" d="M0,0 Q5,-5 10,0 5,5 0,0z" style="fill: rgb(0, 115, 0); transform: matrix(0.31186, -1.46722, 1.22268, 0.25988, 386.764, 195);"></path><path data-svg-origin="0 0" d="M0,0 Q5,-5 10,0 5,5 0,0z" style="fill: rgb(0, 114, 0); transform: matrix(-0.72638, -1.42561, 1.1583, -0.59018, 384.244, 200);"></path><path data-svg-origin="0 0" d="M0,0 Q5,-5 10,0 5,5 0,0z" style="fill: rgb(0, 123, 0); transform: matrix(1.44168, -0.90086, 0.71539, 1.14486, 382.06, 205);"></path><path data-svg-origin="0 0" d="M0,0 Q5,-5 10,0 5,5 0,0z" style="fill: rgb(0, 146, 0); transform: matrix(1.69144, -0.61563, 0.47882, 1.31556, 384.454, 210);"></path><path data-svg-origin="0 0" d="M0,0 Q5,-5 10,0 5,5 0,0z" style="fill: rgb(0, 140, 0); transform: matrix(-1.43394, -1.24651, 0.95128, -1.09432, 382.382, 215);"></path><path data-svg-origin="0 0" d="M0,0 Q5,-5 10,0 5,5 0,0z" style="fill: rgb(0, 111, 0); transform: matrix(-0.68404, -1.87938, 1.40953, -0.51303, 383.642, 220);"></path><path data-svg-origin="0 0" d="M0,0 Q5,-5 10,0 5,5 0,0z" style="fill: rgb(0, 111, 0); transform: matrix(1.51061, -1.45878, 1.07672, 1.11497, 385.847, 225);"></path><path data-svg-origin="0 0" d="M0,0 Q5,-5 10,0 5,5 0,0z" style="fill: rgb(0, 147, 0); transform: matrix(-0.19174, -2.19162, 1.59391, -0.13944, 383.229, 230);"></path><path data-svg-origin="0 0" d="M0,0 Q5,-5 10,0 5,5 0,0z" style="fill: rgb(0, 129, 0); transform: matrix(-1.86073, -1.3519, 0.96984, -1.33487, 385.539, 235);"></path><path data-svg-origin="0 0" d="M0,0 Q5,-5 10,0 5,5 0,0z" style="fill: rgb(0, 127, 0); transform: matrix(0.49898, -2.34755, 1.66285, 0.35344, 384.643, 240);"></path><path data-svg-origin="0 0" d="M0,0 Q5,-5 10,0 5,5 0,0z" style="fill: rgb(0, 158, 0); transform: matrix(0.17439, -2.49391, 1.74573, 0.12207, 385.511, 245);"></path><path data-svg-origin="0 0" d="M0,0 Q5,-5 10,0 5,5 0,0z" style="fill: rgb(0, 139, 0); transform: matrix(1.22062, -2.29566, 1.5893, 0.84504, 384.461, 250);"></path><path data-svg-origin="0 0" d="M0,0 Q5,-5 10,0 5,5 0,0z" style="fill: rgb(0, 128, 0); transform: matrix(2.5529, -0.87903, 0.6023, 1.7492, 383.649, 255);"></path><path data-svg-origin="0 0" d="M0,0 Q5,-5 10,0 5,5 0,0z" style="fill: rgb(0, 119, 0); transform: matrix(1.90959, -2.04779, 1.38957, 1.29579, 383.257, 260);"></path><path data-svg-origin="0 0" d="M0,0 Q5,-5 10,0 5,5 0,0z" style="fill: rgb(0, 146, 0); transform: matrix(2.742, -0.94414, 0.63485, 1.84376, 384.013, 265);"></path><path data-svg-origin="0 0" d="M0,0 Q5,-5 10,0 5,5 0,0z" style="fill: rgb(0, 140, 0); transform: matrix(-1.92836, -2.29813, 1.53208, -1.28557, 384.741, 270);"></path><path data-svg-origin="0 0" d="M0,0 Q5,-5 10,0 5,5 0,0z" style="fill: rgb(0, 132, 0); transform: matrix(-3.07689, -0.37779, 0.24983, -2.03471, 385.091, 275);"></path><path data-svg-origin="0 0" d="M0,0 Q5,-5 10,0 5,5 0,0z" style="fill: rgb(0, 131, 0); transform: matrix(0.27889, -3.18782, 2.092, 0.18302, 385.763, 280);"></path><path data-svg-origin="0 0" d="M0,0 Q5,-5 10,0 5,5 0,0z" style="fill: rgb(0, 137, 0); transform: matrix(3.13848, -1.01975, 0.66438, 2.04477, 387.373, 285);"></path><path data-svg-origin="0 0" d="M0,0 Q5,-5 10,0 5,5 0,0z" style="fill: rgb(0, 125, 0); transform: matrix(0.41435, -3.37465, 2.1836, 0.26811, 387.527, 290);"></path><path data-svg-origin="0 0" d="M0,0 Q5,-5 10,0 5,5 0,0z" style="fill: rgb(0, 150, 0); transform: matrix(3.49946, -0.06108, 0.03926, 2.24965, 386.204, 295);"></path><path data-svg-origin="0 0" d="M0,0 Q5,-5 10,0 5,5 0,0z" style="fill: rgb(0, 147, 0); transform: matrix(2.79772, -2.26555, 1.44743, 1.78743, 385.364, 300);"></path><path data-svg-origin="0 0" d="M0,0 Q5,-5 10,0 5,5 0,0z" style="fill: rgb(0, 156, 0); transform: matrix(-1.67976, -3.29672, 2.09386, -1.06687, 385.763, 305);"></path><path data-svg-origin="0 0" d="M0,0 Q5,-5 10,0 5,5 0,0z" style="fill: rgb(0, 124, 0); transform: matrix(-2.17959, -3.11277, 1.96596, -1.37658, 385.763, 310);"></path><path data-svg-origin="0 0" d="M0,0 Q5,-5 10,0 5,5 0,0z" style="fill: rgb(0, 136, 0); transform: matrix(3.78415, -0.94349, 0.5927, 2.37722, 385.168, 315);"></path><path data-svg-origin="0 0" d="M0,0 Q5,-5 10,0 5,5 0,0z" style="fill: rgb(0, 116, 0); transform: matrix(-0.98162, -0.1908, 0.1908, -0.98162, 121.765, 235);"></path><path data-svg-origin="0 0" d="M0,0 Q5,-5 10,0 5,5 0,0z" style="fill: rgb(0, 144, 0); transform: matrix(-0.97124, -0.51641, 0.49294, -0.92709, 121.765, 240);"></path><path data-svg-origin="0 0" d="M0,0 Q5,-5 10,0 5,5 0,0z" style="fill: rgb(0, 124, 0); transform: matrix(1.11262, -0.44952, 0.41206, 1.0199, 120.029, 245);"></path><path data-svg-origin="0 0" d="M0,0 Q5,-5 10,0 5,5 0,0z" style="fill: rgb(0, 121, 0); transform: matrix(0.66954, -1.11431, 0.98574, 0.59229, 121.709, 250);"></path><path data-svg-origin="0 0" d="M0,0 Q5,-5 10,0 5,5 0,0z" style="fill: rgb(0, 154, 0); transform: matrix(0.33869, -1.35841, 1.16435, 0.2903, 122.927, 255);"></path><path data-svg-origin="0 0" d="M0,0 Q5,-5 10,0 5,5 0,0z" style="fill: rgb(0, 129, 0); transform: matrix(1.06066, -1.06066, 0.88388, 0.88388, 122.143, 260);"></path><path data-svg-origin="0 0" d="M0,0 Q5,-5 10,0 5,5 0,0z" style="fill: rgb(0, 126, 0); transform: matrix(-1.48349, -0.59937, 0.48698, -1.20533, 120.064, 265);"></path><path data-svg-origin="0 0" d="M0,0 Q5,-5 10,0 5,5 0,0z" style="fill: rgb(0, 125, 0); transform: matrix(1.59747, -0.58143, 0.46172, 1.26858, 118.244, 270);"></path><path data-svg-origin="0 0" d="M0,0 Q5,-5 10,0 5,5 0,0z" style="fill: rgb(0, 153, 0); transform: matrix(-1.77783, -0.28158, 0.219, -1.38276, 118.069, 275);"></path><path data-svg-origin="0 0" d="M0,0 Q5,-5 10,0 5,5 0,0z" style="fill: rgb(0, 130, 0); transform: matrix(0.09943, -1.89739, 1.44801, 0.07588, 118.573, 280);"></path><path data-svg-origin="0 0" d="M0,0 Q5,-5 10,0 5,5 0,0z" style="fill: rgb(0, 154, 0); transform: matrix(-1.55429, -1.25864, 0.94398, -1.16571, 117.607, 285);"></path><path data-svg-origin="0 0" d="M0,0 Q5,-5 10,0 5,5 0,0z" style="fill: rgb(0, 150, 0); transform: matrix(2.04617, -0.47239, 0.34867, 1.51027, 117.299, 290);"></path><path data-svg-origin="0 0" d="M0,0 Q5,-5 10,0 5,5 0,0z" style="fill: rgb(0, 138, 0); transform: matrix(0.49489, -2.14361, 1.55899, 0.35992, 117.74, 295);"></path><path data-svg-origin="0 0" d="M0,0 Q5,-5 10,0 5,5 0,0z" style="fill: rgb(0, 138, 0); transform: matrix(0.20045, -2.29124, 1.64372, 0.1438, 119, 300);"></path><path data-svg-origin="0 0" d="M0,0 Q5,-5 10,0 5,5 0,0z" style="fill: rgb(0, 141, 0); transform: matrix(-0.29248, -2.38211, 1.68732, -0.20717, 119.798, 305);"></path><path data-svg-origin="0 0" d="M0,0 Q5,-5 10,0 5,5 0,0z" style="fill: rgb(0, 130, 0); transform: matrix(0.21788, -2.49048, 1.74334, 0.15252, 119.42, 310);"></path><path data-svg-origin="0 0" d="M0,0 Q5,-5 10,0 5,5 0,0z" style="fill: rgb(0, 126, 0); transform: matrix(-0.67292, -2.5114, 1.73866, -0.46587, 119.896, 315);"></path><path data-svg-origin="0 0" d="M0,0 Q5,-5 10,0 5,5 0,0z" style="fill: rgb(0, 136, 0); transform: matrix(1.94221, -1.87557, 1.28511, 1.33077, 119, 320);"></path><path data-svg-origin="0 0" d="M0,0 Q5,-5 10,0 5,5 0,0z" style="fill: rgb(0, 110, 0); transform: matrix(2.0808, -1.87356, 1.27134, 1.41197, 119.945, 325);"></path><path data-svg-origin="0 0" d="M0,0 Q5,-5 10,0 5,5 0,0z" style="fill: rgb(0, 132, 0); transform: matrix(-2.89955, -0.05061, 0.03403, -1.9497, 120.337, 330);"></path><path data-svg-origin="0 0" d="M0,0 Q5,-5 10,0 5,5 0,0z" style="fill: rgb(0, 150, 0); transform: matrix(-1.0751, -2.80074, 1.86716, -0.71673, 120.428, 335);"></path><path data-svg-origin="0 0" d="M0,0 Q5,-5 10,0 5,5 0,0z" style="fill: rgb(0, 157, 0); transform: matrix(-2.03378, -2.33959, 1.54715, -1.34492, 120.008, 340);"></path><path data-svg-origin="0 0" d="M0,0 Q5,-5 10,0 5,5 0,0z" style="fill: rgb(0, 154, 0); transform: matrix(2.2229, -2.30188, 1.51061, 1.45878, 120.162, 345);"></path><path data-svg-origin="0 0" d="M0,0 Q5,-5 10,0 5,5 0,0z" style="fill: rgb(0, 150, 0); transform: matrix(1.59987, -2.88624, 1.88043, 1.04234, 119.742, 350);"></path><path data-svg-origin="0 0" d="M0,0 Q5,-5 10,0 5,5 0,0z" style="fill: rgb(0, 144, 0); transform: matrix(-3.37465, -0.41435, 0.26811, -2.1836, 119.616, 355);"></path><path data-svg-origin="0 0" d="M0,0 Q5,-5 10,0 5,5 0,0z" style="fill: rgb(0, 143, 0); transform: matrix(3.48668, -0.30504, 0.1961, 2.24143, 119.616, 360);"></path><path data-svg-origin="0 0" d="M0,0 Q5,-5 10,0 5,5 0,0z" style="fill: rgb(0, 145, 0); transform: matrix(3.36088, -1.29012, 0.82424, 2.14723, 119.322, 365);"></path><path data-svg-origin="0 0" d="M0,0 Q5,-5 10,0 5,5 0,0z" style="fill: rgb(0, 158, 0); transform: matrix(1.90564, -3.17151, 2.01434, 1.21033, 119.532, 370);"></path><path data-svg-origin="0 0" d="M0,0 Q5,-5 10,0 5,5 0,0z" style="fill: rgb(0, 115, 0); transform: matrix(0.33119, -3.78553, 2.39086, 0.20917, 119.147, 375);"></path><path data-svg-origin="0 0" d="M0,0 Q5,-5 10,0 5,5 0,0z" style="fill: rgb(0, 132, 0); transform: matrix(3.30738, -2.06668, 1.2983, 2.07771, 119.063, 380);"></path><path data-svg-origin="0 0" d="M0,0 Q5,-5 10,0 5,5 0,0z" style="fill: rgb(0, 153, 0); transform: matrix(-0.9563, -0.29237, 0.29237, -0.9563, 397.319, 150);"></path><path data-svg-origin="0 0" d="M0,0 Q5,-5 10,0 5,5 0,0z" style="fill: rgb(0, 127, 0); transform: matrix(0.83018, -0.72166, 0.68886, 0.79244, 394.232, 155);"></path><path data-svg-origin="0 0" d="M0,0 Q5,-5 10,0 5,5 0,0z" style="fill: rgb(0, 141, 0); transform: matrix(1.17795, -0.22897, 0.20988, 1.07978, 393.224, 160);"></path><path data-svg-origin="0 0" d="M0,0 Q5,-5 10,0 5,5 0,0z" style="fill: rgb(0, 144, 0); transform: matrix(0.65, -1.12583, 0.99592, 0.575, 393.882, 165);"></path><path data-svg-origin="0 0" d="M0,0 Q5,-5 10,0 5,5 0,0z" style="fill: rgb(0, 149, 0); transform: matrix(0.76249, -1.17413, 1.0064, 0.65356, 396.458, 170);"></path><path data-svg-origin="0 0" d="M0,0 Q5,-5 10,0 5,5 0,0z" style="fill: rgb(0, 126, 0); transform: matrix(0.38822, -1.44888, 1.2074, 0.32352, 394.568, 175);"></path><path data-svg-origin="0 0" d="M0,0 Q5,-5 10,0 5,5 0,0z" style="fill: rgb(0, 156, 0); transform: matrix(1.13137, -1.13137, 0.91923, 0.91923, 397.032, 180);"></path><path data-svg-origin="0 0" d="M0,0 Q5,-5 10,0 5,5 0,0z" style="fill: rgb(0, 153, 0); transform: matrix(-1.69068, -0.17769, 0.14111, -1.3426, 400.042, 185);"></path><path data-svg-origin="0 0" d="M0,0 Q5,-5 10,0 5,5 0,0z" style="fill: rgb(0, 143, 0); transform: matrix(-1.57431, -0.87265, 0.67873, -1.22446, 401.512, 190);"></path><path data-svg-origin="0 0" d="M0,0 Q5,-5 10,0 5,5 0,0z" style="fill: rgb(0, 160, 0); transform: matrix(-1.03481, -1.59347, 1.21607, -0.78972, 399.79, 195);"></path><path data-svg-origin="0 0" d="M0,0 Q5,-5 10,0 5,5 0,0z" style="fill: rgb(0, 133, 0); transform: matrix(0.20905, -1.98904, 1.49178, 0.15679, 402.59, 200);"></path><path data-svg-origin="0 0" d="M0,0 Q5,-5 10,0 5,5 0,0z" style="fill: rgb(0, 151, 0); transform: matrix(-1.29288, -1.65482, 1.22141, -0.95427, 403.682, 205);"></path><path data-svg-origin="0 0" d="M0,0 Q5,-5 10,0 5,5 0,0z" style="fill: rgb(0, 154, 0); transform: matrix(-2.09232, -0.67983, 0.49442, -1.52169, 406.342, 210);"></path><path data-svg-origin="0 0" d="M0,0 Q5,-5 10,0 5,5 0,0z" style="fill: rgb(0, 128, 0); transform: matrix(-1.50893, -1.73583, 1.24527, -1.08249, 404.788, 215);"></path><path data-svg-origin="0 0" d="M0,0 Q5,-5 10,0 5,5 0,0z" style="fill: rgb(0, 148, 0); transform: matrix(1.96596, -1.37658, 0.97507, 1.39255, 405.796, 220);"></path><path data-svg-origin="0 0" d="M0,0 Q5,-5 10,0 5,5 0,0z" style="fill: rgb(0, 153, 0); transform: matrix(-2.37764, -0.77254, 0.54077, -1.66434, 404.816, 225);"></path><path data-svg-origin="0 0" d="M0,0 Q5,-5 10,0 5,5 0,0z" style="fill: rgb(0, 153, 0); transform: matrix(-2.33686, -1.13976, 0.78906, -1.61782, 406.006, 230);"></path><path data-svg-origin="0 0" d="M0,0 Q5,-5 10,0 5,5 0,0z" style="fill: rgb(0, 122, 0); transform: matrix(2.00649, -1.80665, 1.23789, 1.37481, 406.006, 235);"></path><path data-svg-origin="0 0" d="M0,0 Q5,-5 10,0 5,5 0,0z" style="fill: rgb(0, 141, 0); transform: matrix(1.27117, -2.49481, 1.69291, 0.86258, 405.782, 240);"></path><path data-svg-origin="0 0" d="M0,0 Q5,-5 10,0 5,5 0,0z" style="fill: rgb(0, 135, 0); transform: matrix(2.87177, -0.4036, 0.27138, 1.93102, 404.263, 245);"></path><path data-svg-origin="0 0" d="M0,0 Q5,-5 10,0 5,5 0,0z" style="fill: rgb(0, 127, 0); transform: matrix(-0.4693, -2.96306, 1.97537, -0.31286, 402.793, 250);"></path><path data-svg-origin="0 0" d="M0,0 Q5,-5 10,0 5,5 0,0z" style="fill: rgb(0, 128, 0); transform: matrix(-2.9311, -1.00926, 0.66741, -1.93831, 400.56, 255);"></path><path data-svg-origin="0 0" d="M0,0 Q5,-5 10,0 5,5 0,0z" style="fill: rgb(0, 123, 0); transform: matrix(1.5023, -2.82543, 1.85418, 0.98589, 402.128, 260);"></path><path data-svg-origin="0 0" d="M0,0 Q5,-5 10,0 5,5 0,0z" style="fill: rgb(0, 120, 0); transform: matrix(2.33345, -2.33345, 1.52027, 1.52027, 400.994, 265);"></path><path data-svg-origin="0 0" d="M0,0 Q5,-5 10,0 5,5 0,0z" style="fill: rgb(0, 115, 0); transform: matrix(2.2306, -2.56601, 1.66036, 1.44332, 399.356, 270);"></path><path data-svg-origin="0 0" d="M0,0 Q5,-5 10,0 5,5 0,0z" style="fill: rgb(0, 117, 0); transform: matrix(-2.15481, -2.75803, 1.77302, -1.38523, 400.406, 275);"></path><path data-svg-origin="0 0" d="M0,0 Q5,-5 10,0 5,5 0,0z" style="fill: rgb(0, 134, 0); transform: matrix(2.67532, -2.40887, 1.539, 1.70923, 401.414, 280);"></path><path data-svg-origin="0 0" d="M0,0 Q5,-5 10,0 5,5 0,0z" style="fill: rgb(0, 122, 0); transform: matrix(3.66399, -0.51494, 0.32705, 2.32712, 402.38, 285);"></path><path data-svg-origin="0 0" d="M0,0 Q5,-5 10,0 5,5 0,0z" style="fill: rgb(0, 121, 0); transform: matrix(0.72507, -3.73018, 2.3559, 0.45794, 402.688, 290);"></path><path data-svg-origin="0 0" d="M0,0 Q5,-5 10,0 5,5 0,0z" style="fill: rgb(0, 144, 0); transform: matrix(3.56282, -1.58627, 0.9965, 2.23818, 401.365, 295);"></path></g>
</svg>